<svg width="22" height="22" viewBox="0 0 22 22" fill="none" xmlns="http://www.w3.org/2000/svg">
<path d="M12.5718 5.077C12.5718 4.60968 12.9235 4.23096 13.3574 4.23096H14.9288C15.3628 4.23096 15.7144 4.60969 15.7144 5.077C15.7144 5.54432 15.3628 5.92325 14.9288 5.92325H13.3574C12.9234 5.92325 12.5718 5.54431 12.5718 5.077Z" fill="black"/>
<path d="M13.3573 6.76953C12.9233 6.76953 12.5717 7.14847 12.5717 7.61578C12.5717 8.0831 12.9233 8.46182 13.3573 8.46182H18.0716C18.5056 8.46182 18.8572 8.08309 18.8572 7.61578C18.8572 7.14846 18.5056 6.76953 18.0716 6.76953H13.3573Z" fill="black"/>
<path d="M12.5718 10.1537C12.5718 9.68634 12.9235 9.30762 13.3574 9.30762H18.0717C18.5057 9.30762 18.8574 9.68635 18.8574 10.1537C18.8574 10.621 18.5057 10.9999 18.0717 10.9999H13.3574C12.9234 10.9999 12.5718 10.621 12.5718 10.1537Z" fill="black"/>
<path d="M13.3573 11.8457C12.9233 11.8457 12.5717 12.2246 12.5717 12.692C12.5717 13.1593 12.9233 13.538 13.3573 13.538H18.0716C18.5056 13.538 18.8572 13.1593 18.8572 12.692C18.8572 12.2246 18.5056 11.8457 18.0716 11.8457H13.3573Z" fill="black"/>
<path fill-rule="evenodd" clip-rule="evenodd" d="M11.0003 4.23102C11.0003 3.7637 10.6484 3.38477 10.2144 3.38477H3.92881C3.49486 3.38477 3.14319 3.7637 3.14319 4.23102V12.6925C3.14319 13.1598 3.49487 13.5385 3.92881 13.5385H10.2144C10.6484 13.5385 11.0003 13.1598 11.0003 12.6925V4.23102ZM5.50563 7.75797C5.21068 7.86924 4.94264 8.04202 4.71452 8.26203V5.07705H9.42887V8.26203C9.20079 8.04201 8.93255 7.86924 8.63762 7.75797C8.64132 7.71094 8.64308 7.6635 8.64308 7.61563C8.64308 6.68097 7.9395 5.92334 7.07164 5.92334C6.20378 5.92334 5.50021 6.68103 5.50021 7.61563C5.50021 7.6635 5.50212 7.71094 5.50563 7.75797ZM6.28601 9.30795C5.85206 9.30795 5.50019 9.68667 5.50019 10.154V11.8463H8.64311V10.154C8.64311 9.68666 8.29143 9.30795 7.85749 9.30795H6.28601Z" fill="black"/>
<path fill-rule="evenodd" clip-rule="evenodd" d="M2.96986e-05 2.53854C2.96986e-05 1.13658 1.05529 0 2.35708 0H19.643C20.9448 0 22 1.13658 22 2.53854V14.3848C22 15.7868 20.9447 16.9231 19.643 16.9231H14.1957C14.2821 17.6109 14.4731 18.2804 14.7628 18.9045L15.4143 20.3077H15.7144C16.1485 20.3077 16.5002 20.6864 16.5002 21.1537C16.5002 21.6211 16.1485 22 15.7144 22H6.28565C5.8517 22 5.49983 21.6211 5.49983 21.1537C5.49983 20.6864 5.85171 20.3077 6.28565 20.3077H6.58567L7.23719 18.9045C7.52707 18.2804 7.71792 17.6109 7.80427 16.9231H2.35705C1.05521 16.9231 0 15.7867 0 14.3848L2.96986e-05 2.53854ZM8.64272 19.6614L8.3427 20.3078H13.6572L13.357 19.6614C12.9579 18.8019 12.7066 17.8742 12.6129 16.9232H9.3867C9.29293 17.8742 9.04164 18.8019 8.6426 19.6614H8.64272ZM19.643 15.2308H2.35708C1.92313 15.2308 1.57146 14.8521 1.57146 14.3848V2.53854C1.57146 2.07122 1.92314 1.69229 2.35708 1.69229H19.643C20.0769 1.69229 20.4286 2.07123 20.4286 2.53854V14.3848C20.4286 14.8521 20.0769 15.2308 19.643 15.2308Z" fill="black"/>
</svg>
