<svg width="22" height="22" viewBox="0 0 22 22"  xmlns="http://www.w3.org/2000/svg">
<path d="M20.8585 18.3206H1.14195C0.512525 18.3206 0.000197501 17.7515 0.000197501 17.0527L0 1.26793C0 0.568944 0.51253 0 1.14175 0H1.63926V0.00285125H20.8582C21.4877 0.00285125 22 0.57202 22 1.27078V17.0528C22.0002 17.7513 21.4877 18.3205 20.8584 18.3205L20.8585 18.3206ZM1.11465 1.10746C1.0475 1.12127 0.995159 1.18751 0.995159 1.26779V17.0526C0.995159 17.1438 1.05974 17.2155 1.1419 17.2155H20.8584C20.9406 17.2155 21.0051 17.1438 21.0051 17.0526L21.0053 1.27059C21.0053 1.17935 20.9408 1.10764 20.8586 1.10764L1.11465 1.10746Z" />
<path d="M13.4377 21.9972H8.56201V17.2155H13.4377V21.9972ZM9.55704 20.8922H12.4425L12.4427 18.3204H9.55703L9.55704 20.8922Z" />
<path d="M6.86108 20.8951H15.1398V22.0001H6.86108V20.8951Z" />
<path d="M0.497803 13.8977H21.5056V15.0027H0.497803V13.8977Z" />
<path d="M3.58678 8.90842L2.88525 8.12937L6.01959 4.64602L7.0221 5.7591L9.45001 3.06311L10.1515 3.84193L7.0221 7.32264L6.01959 6.20934L3.58678 8.90842Z" />
<path d="M10.2983 5.67947H9.30332V4.00538H7.79834V2.90039H10.2983L10.2983 5.67947Z" />
<path d="M3.48486 9.78723H4.47989V11.5498H3.48486V9.78723Z" />
<path d="M6.02271 8.44226H7.01773V11.5501H6.02271V8.44226Z" />
<path d="M8.55713 7.09949H9.55216V11.5499H8.55713V7.09949Z" />
<path d="M15.4205 11.7325C13.4753 11.7325 11.8906 9.9728 11.8906 7.81246C11.8906 5.65229 13.4752 3.89246 15.4205 3.89246H15.918V7.26002H18.9505V7.81251C18.9505 9.9729 17.3659 11.7325 15.4206 11.7325L15.4205 11.7325ZM14.923 5.05314C13.7639 5.30997 12.8856 6.45094 12.8856 7.81291C12.8856 9.3655 14.0224 10.628 15.4206 10.628C16.6468 10.628 17.6742 9.65287 17.9057 8.3654H14.923V5.05314Z" />
<path d="M19.7537 6.69093H16.4329V3.00293H16.9304C18.4877 3.00293 19.7539 4.40903 19.7539 6.13844L19.7537 6.69093ZM17.4279 5.58595H18.6891C18.5175 4.90909 18.0348 4.37591 17.4279 4.18534V5.58595Z" />
<path d="M2.9873 10.9973H10.0496V12.1023H2.9873V10.9973Z" />
</svg>
