<svg width="23" height="22" viewBox="0 0 23 22" fill="none" xmlns="http://www.w3.org/2000/svg">
<path d="M22.4998 8.26424V18.566C22.4998 20.4662 20.9267 22 18.9778 22H3.71634C1.76746 22 0.194336 20.4662 0.194336 18.566V8.26424C0.194336 6.9937 0.898659 5.88337 1.95531 5.28804L11.3474 0L20.7389 5.28804C21.7956 5.88337 22.4999 6.9937 22.4999 8.26424M2.21357 6.51299L11.3473 12.2705L20.481 6.51299L11.3473 1.31629L2.21357 6.51299ZM11.3473 13.6555L1.52122 7.43995C1.42728 7.69193 1.36851 7.97798 1.36851 8.26424V18.566C1.36851 19.8253 2.425 20.8553 3.71648 20.8553H18.9779C20.2695 20.8553 21.3259 19.8252 21.3259 18.566V8.26424C21.3259 7.97797 21.2673 7.69192 21.1734 7.43995L11.3473 13.6555Z" fill="#D3E2E8"/>
</svg>
