<svg width="47" height="47" viewBox="0 0 47 47" fill="none" xmlns="http://www.w3.org/2000/svg">
<path d="M37.2083 5.875H9.79167C7.61792 5.875 5.875 7.61792 5.875 9.79167V17.625H9.79167V9.79167H37.2083V37.2083H9.79167V29.375H5.875V37.2083C5.875 38.2471 6.28765 39.2433 7.02216 39.9778C7.75668 40.7124 8.7529 41.125 9.79167 41.125H37.2083C38.2471 41.125 39.2433 40.7124 39.9778 39.9778C40.7124 39.2433 41.125 38.2471 41.125 37.2083V9.79167C41.125 7.61792 39.3625 5.875 37.2083 5.875ZM19.74 30.5108L22.5208 33.2917L32.3125 23.5L22.5208 13.7083L19.74 16.4696L24.8121 21.5417H5.875V25.4583H24.8121L19.74 30.5108Z" fill="#F4F5F6"/>
</svg>
