<svg width="43" height="47" viewBox="0 0 43 47" fill="none" xmlns="http://www.w3.org/2000/svg">
<path d="M40.9856 30.8573L37.5984 27H30V45.2607H40.9859V43.8655H42.9999L43 36.6637H40.986L40.9856 30.8573ZM37.2322 27.4513L40.6194 31.2675H37.2322V27.4513ZM42.4502 37.2791V43.2497H32.1054V37.2791H42.4502Z" fill="#55844D"/>
<path d="M35.5659 40.6234H35.0897V41.3415H34.339V38.8384H33.8081V41.8546H35.5659V40.6234Z" fill="#55844D"/>
<path d="M36.5547 41.4852C36.628 41.6289 36.7379 41.7315 36.866 41.8136C36.9942 41.8956 37.1591 41.9367 37.3421 41.9367C37.69 41.9367 37.9462 41.793 38.1111 41.5263C38.2759 41.2595 38.3674 40.8697 38.3674 40.3772C38.3674 40.1515 38.3491 39.9464 38.3125 39.7412C38.2759 39.5565 38.2209 39.3923 38.1294 39.2488C38.0561 39.1052 37.9462 39.0026 37.818 38.9205C37.6899 38.8384 37.525 38.7974 37.342 38.7974C37.1772 38.7974 37.0124 38.8384 36.9027 38.9C36.7745 38.9821 36.6646 39.0847 36.5913 39.2078C36.4998 39.3514 36.4448 39.5156 36.4082 39.7002C36.3716 39.9054 36.3533 40.1106 36.3533 40.3567C36.3533 40.5824 36.3716 40.7875 36.4082 40.9927C36.4267 41.1775 36.4816 41.3415 36.5547 41.4852ZM36.9759 39.577C37.0309 39.3923 37.1591 39.3103 37.3422 39.3103C37.4521 39.3103 37.5253 39.3308 37.5803 39.3923C37.6352 39.4539 37.6901 39.5155 37.7268 39.6181C37.7634 39.7207 37.7817 39.8233 37.7817 39.9464C37.7817 40.0696 37.8 40.2132 37.8 40.3569C37.8 40.5416 37.8 40.6852 37.7817 40.8287C37.7634 40.9518 37.7451 41.075 37.7084 41.157C37.6718 41.2391 37.6169 41.3007 37.5619 41.3417C37.507 41.3828 37.4338 41.4033 37.3422 41.4033C37.2506 41.4033 37.1591 41.3828 37.1041 41.3212C37.0492 41.2597 36.9942 41.1981 36.9576 41.0955C36.921 40.9929 36.9027 40.8903 36.8844 40.7671C36.8661 40.644 36.8661 40.5004 36.8661 40.3567C36.8844 40.008 36.921 39.7412 36.9759 39.577Z" fill="#55844D"/>
<path d="M39.4111 41.5264C39.521 41.67 39.6492 41.7521 39.7956 41.8342C39.9421 41.8958 40.1069 41.9368 40.2716 41.9368C40.4181 41.9368 40.5646 41.9163 40.6926 41.8753C40.8208 41.8342 40.949 41.7521 41.0406 41.67V40.3159H40.1251V40.7467H40.6194V41.3417C40.6011 41.3622 40.5645 41.3827 40.5095 41.4032C40.4546 41.4238 40.3997 41.4238 40.3264 41.4238C40.2165 41.4238 40.125 41.4032 40.0334 41.3622C39.9418 41.3212 39.8686 41.2391 39.8136 41.157C39.7404 41.0749 39.7038 40.9518 39.6671 40.8286C39.6305 40.7055 39.6122 40.5619 39.6122 40.3978C39.6122 40.2132 39.6305 40.049 39.6671 39.926C39.7038 39.8029 39.7587 39.6797 39.8136 39.5977C39.8869 39.5156 39.9601 39.454 40.0517 39.413C40.1433 39.3719 40.2348 39.3514 40.3447 39.3514C40.3997 39.3514 40.4546 39.3514 40.5095 39.3719C40.5278 39.3719 40.5462 39.3924 40.5645 39.3924L40.5646 39.8234H40.9857V38.9411C40.8941 38.9001 40.8025 38.859 40.711 38.8385C40.6011 38.818 40.4729 38.7975 40.3266 38.7975C40.1801 38.7975 40.0335 38.818 39.8689 38.8796C39.7224 38.9411 39.5759 39.0232 39.4661 39.1464C39.3379 39.2695 39.2464 39.4337 39.1731 39.6182C39.0999 39.8234 39.0632 40.049 39.0632 40.3363C39.0632 40.6031 39.0999 40.8287 39.1548 41.0339C39.2097 41.2186 39.3013 41.3827 39.4112 41.5264L39.4111 41.5264Z" fill="#55844D"/>
<circle cx="22" cy="10" r="8" stroke="#55844D" stroke-width="4"/>
<path d="M27.5 28C13 24.5 4.33333 37.0333 3 44.0333H23" stroke="#55844D" stroke-width="4"/>
</svg>
