<svg width="18" height="25" viewBox="0 0 18 25" fill="none" xmlns="http://www.w3.org/2000/svg">
<path d="M15.3002 8.92865H4.50005V6.24996C4.50005 4.65519 5.35774 3.18138 6.74999 2.38385C8.14246 1.58638 9.85786 1.58638 11.2502 2.38385C12.6425 3.18132 13.5001 4.65519 13.5001 6.24996C13.5001 6.56896 13.6716 6.8638 13.9501 7.02333C14.2285 7.18286 14.5717 7.18283 14.8502 7.02333C15.1286 6.86383 15.3001 6.56898 15.3001 6.24996C15.3001 4.01719 14.0994 1.95387 12.1501 0.837396C10.2009 -0.279132 7.79931 -0.279132 5.84994 0.837396C3.90074 1.95392 2.69989 4.01719 2.69989 6.24996V8.92865C1.98378 8.92865 1.29712 9.21088 0.790701 9.71308C0.28448 10.2155 0 10.8967 0 11.6071V22.3215C0 23.032 0.284486 23.7132 0.790701 24.2156C1.29715 24.7178 1.98378 25 2.69989 25H5.4C5.72155 25 6.01852 24.8299 6.17932 24.5536C6.3401 24.2774 6.3401 23.9371 6.17932 23.6609C6.01855 23.3846 5.72156 23.2143 5.4 23.2143H2.69989C2.46118 23.2143 2.2323 23.1204 2.06347 22.9529C1.89465 22.7854 1.79998 22.5583 1.79998 22.3215V11.6071C1.79998 11.3703 1.89465 11.1432 2.06347 10.9757C2.23229 10.8082 2.46117 10.7143 2.69989 10.7143H15.3001C15.5388 10.7143 15.7677 10.8082 15.9365 10.9757C16.1054 11.1432 16.2 11.3703 16.2 11.6071V22.3215C16.2 22.5583 16.1053 22.7854 15.9365 22.9529C15.7677 23.1204 15.5388 23.2143 15.3001 23.2143H9C8.67845 23.2143 8.38125 23.3846 8.22045 23.6609C8.05967 23.9371 8.05967 24.2774 8.22045 24.5536C8.38122 24.8299 8.67843 25 9 25H15.3001C16.0162 25 16.7029 24.7178 17.2093 24.2156C17.7155 23.7131 18 23.032 18 22.3215V11.6071C18 10.8967 17.7155 10.2155 17.2093 9.71308C16.7029 9.21087 16.0163 8.92865 15.3002 8.92865Z" fill="#D3E2E8"/>
</svg>
