<svg width="24" height="25" viewBox="0 0 24 25" fill="none" xmlns="http://www.w3.org/2000/svg">
<path d="M7.12871 20.2381C8.43564 20.2381 9.50495 21.3095 9.50495 22.619C9.50495 23.9286 8.43564 25 7.12871 25C5.82178 25 4.75248 23.9286 4.75248 22.619C4.75248 21.3095 5.82178 20.2381 7.12871 20.2381ZM19.0099 20.2381C20.3168 20.2381 21.3861 21.3095 21.3861 22.619C21.3861 23.9286 20.3168 25 19.0099 25C17.703 25 16.6337 23.9286 16.6337 22.619C16.6337 21.3095 17.703 20.2381 19.0099 20.2381ZM7.36634 16.4286C7.36634 16.5476 7.48515 16.6667 7.60396 16.6667H21.3861V19.0476H7.12871C5.82178 19.0476 4.75248 17.9762 4.75248 16.6667C4.75248 16.1905 4.87129 15.8333 4.9901 15.4762L6.53465 12.619L2.37624 3.57143H0V1.19048H3.92079L9.0297 11.9048H17.3465L21.9802 3.57143L24 4.7619L19.3663 13.0952C19.0099 13.8095 18.1782 14.2857 17.3465 14.2857H8.43564L7.36634 16.1905V16.4286ZM9.9802 0C10.9307 0 11.6436 0.714286 11.6436 1.66667C11.6436 2.61905 10.9307 3.33333 9.9802 3.33333C9.0297 3.33333 8.31683 2.61905 8.31683 1.66667C8.31683 0.714286 9.14851 0 9.9802 0ZM16.1584 9.52381C15.2079 9.52381 14.495 8.80952 14.495 7.85714C14.495 6.90476 15.2079 6.19048 16.1584 6.19048C17.1089 6.19048 17.8218 6.90476 17.8218 7.85714C17.8218 8.80952 16.9901 9.52381 16.1584 9.52381ZM9.74257 9.52381L8.31683 8.09524L16.396 0L17.8218 1.42857L9.74257 9.52381Z" fill="#DFECF1"/>
</svg>
