<svg width="38" height="38" viewBox="0 0 38 38" fill="none" xmlns="http://www.w3.org/2000/svg">
<path d="M29.2933 6.3309H24.4146C24.3401 5.0576 23.284 4.04407 21.9923 4.04407H16.1943C14.903 4.04407 13.8465 5.0579 13.772 6.3309H8.89301C8.12559 6.3309 7.50171 6.95509 7.50171 7.7222V9.43621C7.50171 10.2036 8.1259 10.8275 8.89301 10.8275H9.35282L10.4498 33.6015C10.4591 33.8007 10.6241 33.9576 10.8233 33.9576H27.3622C27.5613 33.9576 27.7263 33.801 27.7356 33.6015L28.8326 10.8275H29.2924C30.0598 10.8275 30.6837 10.2033 30.6837 9.43621V7.7222C30.6843 6.95508 30.0604 6.3309 29.293 6.3309H29.2933ZM16.1944 4.79145H21.9925C22.8709 4.79145 23.5859 5.47072 23.6595 6.3306H14.5276C14.6013 5.47129 15.3162 4.79145 16.1947 4.79145H16.1944ZM27.0066 33.2091H11.1802L10.1023 10.8269H28.0848L27.0066 33.2091ZM29.9371 9.43532C29.9371 9.79017 29.6489 10.0789 29.2935 10.0789H8.89295C8.53809 10.0789 8.24933 9.79018 8.24933 9.43532V7.72131C8.24933 7.36645 8.53751 7.07769 8.89295 7.07769H29.2942C29.6491 7.07769 29.9378 7.36645 29.9378 7.72131L29.9375 9.43532H29.9371Z" fill="black"/>
<path d="M14.7968 30.6843C15.0036 30.6843 15.1708 30.5168 15.1708 30.3103V13.8575C15.1708 13.6511 15.0036 13.4835 14.7968 13.4835C14.5901 13.4835 14.4229 13.6511 14.4229 13.8575V30.3103C14.4229 30.5167 14.5901 30.6843 14.7968 30.6843Z" fill="black"/>
<path d="M19.0935 30.6843C19.3002 30.6843 19.4675 30.5168 19.4675 30.3103V13.8575C19.4675 13.6511 19.3002 13.4835 19.0935 13.4835C18.8868 13.4835 18.7195 13.6511 18.7195 13.8575V30.3103C18.7195 30.5167 18.8868 30.6843 19.0935 30.6843Z" fill="black"/>
<path d="M23.3891 30.6843C23.5958 30.6843 23.7631 30.5168 23.7631 30.3103V13.8575C23.7631 13.6511 23.5958 13.4835 23.3891 13.4835C23.1824 13.4835 23.0151 13.6511 23.0151 13.8575V30.3103C23.0154 30.5167 23.1827 30.6843 23.3891 30.6843Z" fill="black"/>
</svg>
