<svg width="35" height="35" viewBox="0 0 35 35" fill="none" xmlns="http://www.w3.org/2000/svg">
<g clip-path="url(#clip0_320_802)">
<mask id="mask0_320_802" style="mask-type:luminance" maskUnits="userSpaceOnUse" x="18" y="18" width="17" height="17">
<path d="M18.8672 18.8672H34.7197V34.7197H18.8672V18.8672Z" fill="white"/>
</mask>
<g mask="url(#mask0_320_802)">
<path d="M19.6527 34.7197C19.4647 34.7197 19.281 34.6452 19.1453 34.5095C18.9608 34.325 18.8914 34.0561 18.9624 33.8048L20.3974 28.7822C20.4311 28.6661 20.4944 28.5585 20.5803 28.4722L29.908 19.1446C30.1886 18.8639 30.642 18.8639 30.9224 19.1446L34.5099 22.7321C34.7906 23.0127 34.7906 23.4661 34.5099 23.7465L25.1823 33.0742C25.0963 33.1601 24.9887 33.2234 24.8709 33.2563L19.8484 34.6913C19.7859 34.7097 19.7186 34.7196 19.6526 34.7196L19.6527 34.7197ZM21.727 29.355L20.6974 32.9575L24.2998 31.9279L32.9883 23.2394L30.4152 20.6665L21.727 29.355Z" fill="black"/>
</g>
<path d="M30.6222 26.6177L27.0347 23.0302L28.0494 22.0155L31.6369 25.603L30.6222 26.6177Z" fill="black"/>
<path d="M24.675 33.2849C24.4913 33.2849 24.3075 33.2147 24.1676 33.0748L20.5801 29.4873C20.2995 29.2066 20.2995 28.7532 20.5801 28.4728C20.8608 28.1922 21.3142 28.1922 21.5946 28.4728L25.1821 32.0603C25.4627 32.341 25.4627 32.7944 25.1821 33.0748C25.0424 33.2147 24.8587 33.2849 24.675 33.2849Z" fill="black"/>
<mask id="mask1_320_802" style="mask-type:luminance" maskUnits="userSpaceOnUse" x="0" y="16" width="22" height="16">
<path d="M0.279541 16.4062H21.123V31.1719H0.279541V16.4062Z" fill="white"/>
</mask>
<g mask="url(#mask1_320_802)">
<path d="M21.0874 31.1322H0.997285C0.60048 31.1322 0.279785 30.8107 0.279785 30.4147V27.7089C0.279785 25.6138 1.57916 23.7446 3.58824 22.9461C5.40565 22.2257 8.87994 20.0409 10.3793 16.4255L11.7054 16.9751C10.1334 20.7706 6.63557 23.2821 4.12022 24.2807C2.65931 24.8604 1.71506 26.2057 1.71506 27.709V29.697H21.0874V31.1322Z" fill="black"/>
</g>
<path d="M25.3922 24.675C25.304 24.675 25.2143 24.6584 25.1275 24.624C23.0102 23.7839 19.2462 21.053 17.554 16.9746C17.4012 16.6087 17.5748 16.189 17.9422 16.0367C18.3075 15.8861 18.7273 16.0584 18.8801 16.425C20.3896 20.0662 23.838 22.5691 25.657 23.289C26.025 23.4361 26.2052 23.8521 26.0594 24.2209C25.9465 24.5037 25.676 24.6751 25.3919 24.6751L25.3922 24.675Z" fill="black"/>
<mask id="mask2_320_802" style="mask-type:luminance" maskUnits="userSpaceOnUse" x="6" y="0" width="17" height="19">
<path d="M6.69922 0.279541H22.5586V18.9355H6.69922V0.279541Z" fill="white"/>
</mask>
<g mask="url(#mask2_320_802)">
<path d="M14.6303 18.9348C10.113 18.9348 6.73755 13.253 6.73755 8.17231C6.73755 3.37779 9.8343 0.279541 14.6303 0.279541C19.4263 0.279541 22.5231 3.37759 22.5231 8.17231C22.5231 13.2528 19.1479 18.9348 14.6303 18.9348ZM14.6303 1.7144C11.5077 1.7144 8.17275 3.41054 8.17275 8.17197C8.17275 12.3967 11.0542 17.4996 14.6303 17.4996C18.2064 17.4996 21.0879 12.3967 21.0879 8.17197C21.0879 3.41061 17.7527 1.7144 14.6303 1.7144Z" fill="black"/>
</g>
</g>
<defs>
<clipPath id="clip0_320_802">
<rect width="35" height="35" fill="white"/>
</clipPath>
</defs>
</svg>
