<svg width="18" height="16" viewBox="0 0 18 16" fill="none" xmlns="http://www.w3.org/2000/svg">
<path fill-rule="evenodd" clip-rule="evenodd" d="M8.68796 1.64008C6.62499 1.64008 4.95233 3.31274 4.95233 5.3757C4.95233 7.43899 6.62499 9.11133 8.68796 9.11133C10.7509 9.11133 12.4236 7.43899 12.4236 5.3757C12.4236 3.31274 10.7509 1.64008 8.68796 1.64008ZM3.31226 5.3757C3.31226 2.40695 5.71921 0 8.68796 0C11.6567 0 14.0637 2.40695 14.0637 5.3757C14.0637 8.34477 11.6567 10.7514 8.68796 10.7514C5.71921 10.7514 3.31226 8.34477 3.31226 5.3757Z" fill="#DFECF1"/>
<path fill-rule="evenodd" clip-rule="evenodd" d="M8.68719 13.4853C5.66594 13.4853 2.95047 14.4026 0.974143 15.8614L0 14.5418C2.28031 12.8587 5.3436 11.8452 8.6875 11.8452C12.0313 11.8452 15.0944 12.8587 17.375 14.5418L16.4009 15.8614C14.4245 14.4026 11.7094 13.4853 8.68781 13.4853H8.68719Z" fill="#DFECF1"/>
</svg>
