<svg width="364" height="247" viewBox="0 0 364 247" fill="none" xmlns="http://www.w3.org/2000/svg">
<path d="M188.752 127.963L82.6641 187.025L188.752 246.088L294.84 187.025L188.752 127.963Z" fill="#000108"/>
<path d="M188.752 246.088V0.287476L82.6641 187.025L188.752 246.088Z" fill="#000108"/>
<path d="M188.752 246.088V0.287476L294.84 187.025L188.752 246.088Z" fill="#000108"/>
<path d="M188.752 133.507V153.452L233.744 79.5264L227.927 69.2075L188.752 133.507Z" fill="#D3E2E8"/>
<path d="M236.721 84.7617L188.752 163.616V177.324L240.781 91.8478L236.721 84.7617Z" fill="#D3E2E8"/>
<path d="M246.261 101.549L188.75 196.034V222.602L254.108 115.333L246.261 101.549Z" fill="#D3E2E8"/>
<path d="M221.037 91.8914C221.037 91.8914 322.756 84.297 363.099 81.2855L221.037 91.8914Z" fill="#55844D"/>
<path d="M221.037 91.8914C221.037 91.8914 322.756 84.297 363.099 81.2855" stroke="#55844D" stroke-width="6"/>
<path d="M221.719 115.567C221.719 115.567 322.999 133.001 363.169 139.917L221.719 115.567Z" fill="#55844D"/>
<path d="M221.719 115.567C221.719 115.567 322.999 133.001 363.169 139.917" stroke="#55844D" stroke-width="6"/>
<path d="M220.784 80.9943C220.784 80.9943 322.666 58.8754 363.074 50.1029" stroke="#9CEB8E" stroke-width="6"/>
<path d="M221.819 104.031C221.819 104.031 322.969 109.192 363.087 111.238L221.819 104.031Z" fill="#9CEB8E"/>
<path d="M221.819 104.031C221.819 104.031 322.969 109.192 363.087 111.238" stroke="#9CEB8E" stroke-width="6"/>
<path d="M0.677246 99.0198H162.634" stroke="#D3E2E8" stroke-width="6" stroke-linejoin="round"/>
</svg>
