<svg width="202" height="166" viewBox="0 0 202 166" fill="none" xmlns="http://www.w3.org/2000/svg">
<path d="M32.8728 138.431C32.8728 139.715 32.6859 140.9 32.3121 141.985C31.9383 143.057 31.334 143.986 30.4994 144.772C29.6769 145.545 28.6055 146.15 27.2848 146.586C25.9642 147.023 24.3571 147.241 22.4634 147.241H10.9513V155.359H4.01794V129.658H22.4634C24.3571 129.658 25.9642 129.877 27.2848 130.313C28.6055 130.737 29.6769 131.342 30.4994 132.127C31.334 132.901 31.9383 133.823 32.3121 134.896C32.6859 135.968 32.8728 137.147 32.8728 138.431ZM25.8647 138.543C25.8647 137.945 25.7773 137.433 25.6029 137.009C25.4409 136.573 25.1668 136.218 24.7807 135.943C24.3945 135.669 23.89 135.469 23.2669 135.345C22.6439 135.207 21.8778 135.139 20.9683 135.139H10.9513V141.761H20.9683C21.8778 141.761 22.6439 141.711 23.2669 141.611C23.89 141.499 24.3945 141.318 24.7807 141.068C25.1668 140.806 25.4409 140.47 25.6029 140.058C25.7773 139.647 25.8647 139.142 25.8647 138.543ZM62.2508 135.476C62.0639 135.413 61.7898 135.332 61.4284 135.232C61.0796 135.12 60.6684 135.014 60.1951 134.915C59.7216 134.802 59.1983 134.709 58.6252 134.634C58.0645 134.559 57.4853 134.522 56.8872 134.522C55.6414 134.522 54.4764 134.677 53.3926 134.989C52.3209 135.288 51.3181 135.694 50.3836 136.205C49.4493 136.704 48.5771 137.277 47.7672 137.926C46.9698 138.562 46.2348 139.216 45.562 139.89V155.359H38.6287V129.658H45.562V133.83C46.3968 133.206 47.2503 132.608 48.1223 132.034C49.0071 131.448 49.9226 130.93 50.8695 130.481C51.8289 130.032 52.838 129.677 53.8972 129.415C54.9561 129.141 56.0773 129.004 57.261 129.004C57.7094 129.004 58.1643 129.029 58.6252 129.079C59.0986 129.116 59.5534 129.166 59.9895 129.228C60.4379 129.291 60.8553 129.359 61.2417 129.434C61.6278 129.509 61.9642 129.584 62.2508 129.658V135.476ZM66.6612 155.359V129.658H73.5945V155.359H66.6612ZM105.309 136.897C104.823 136.66 104.181 136.392 103.384 136.093C102.586 135.793 101.683 135.513 100.674 135.251C99.6648 134.977 98.5683 134.752 97.3848 134.578C96.2013 134.391 94.9865 134.297 93.7405 134.297C92.7439 134.297 91.8904 134.328 91.1802 134.391C90.4826 134.453 89.8908 134.534 89.4049 134.634C88.9314 134.734 88.5514 134.852 88.2648 134.989C87.9907 135.114 87.7789 135.245 87.6295 135.382C87.48 135.519 87.3803 135.656 87.3305 135.793C87.2931 135.931 87.2744 136.055 87.2744 136.168C87.2744 136.542 87.4613 136.872 87.8351 137.159C88.2089 137.433 88.7196 137.683 89.3675 137.907C90.0154 138.119 90.7692 138.325 91.6288 138.524C92.4885 138.711 93.3979 138.911 94.3573 139.123C95.3291 139.322 96.3259 139.547 97.3474 139.796C98.3816 140.033 99.3782 140.314 100.338 140.638C101.309 140.962 102.225 141.343 103.085 141.779C103.944 142.203 104.698 142.702 105.346 143.276C105.994 143.849 106.505 144.51 106.878 145.258C107.252 146.007 107.439 146.861 107.439 147.821C107.439 149.055 107.221 150.115 106.785 151.001C106.349 151.886 105.763 152.634 105.028 153.245C104.306 153.856 103.465 154.349 102.505 154.723C101.546 155.085 100.537 155.365 99.4779 155.565C98.4314 155.764 97.3661 155.895 96.2821 155.957C95.2106 156.02 94.1891 156.051 93.2172 156.051C90.6756 156.051 88.3209 155.839 86.1532 155.415C83.9977 155.004 82.0915 154.486 80.4344 153.863V147.727C82.1414 148.675 84.0849 149.417 86.2652 149.953C88.4581 150.489 90.8002 150.758 93.2921 150.758C94.7622 150.758 95.9582 150.683 96.8802 150.533C97.8147 150.371 98.5434 150.171 99.0667 149.935C99.59 149.685 99.9451 149.417 100.132 149.13C100.319 148.843 100.412 148.569 100.412 148.307C100.412 147.896 100.225 147.54 99.8517 147.241C99.4779 146.929 98.967 146.661 98.3193 146.437C97.6714 146.2 96.9176 145.988 96.058 145.801C95.1983 145.601 94.2825 145.408 93.3108 145.221C92.3514 145.021 91.3609 144.809 90.3392 144.585C89.3178 144.36 88.3209 144.099 87.3492 143.799C86.3898 143.488 85.4804 143.132 84.6207 142.733C83.7611 142.322 83.0073 141.841 82.3594 141.293C81.7115 140.732 81.2008 140.089 80.827 139.366C80.4531 138.63 80.2662 137.783 80.2662 136.822C80.2662 135.688 80.4657 134.709 80.8644 133.886C81.2631 133.063 81.7987 132.364 82.4714 131.791C83.1568 131.205 83.9416 130.731 84.8263 130.369C85.7232 130.008 86.6639 129.727 87.6482 129.527C88.6324 129.328 89.629 129.191 90.6384 129.116C91.6476 129.041 92.6067 129.004 93.5164 129.004C94.513 129.004 95.5347 129.053 96.5813 129.153C97.6402 129.253 98.6806 129.397 99.702 129.584C100.724 129.758 101.708 129.964 102.655 130.201C103.614 130.438 104.499 130.687 105.309 130.949V136.897ZM120.951 129.658V132.483C121.561 132.096 122.222 131.697 122.932 131.286C123.654 130.874 124.433 130.5 125.268 130.163C126.115 129.827 127.018 129.552 127.978 129.34C128.949 129.116 129.996 129.004 131.117 129.004C132.214 129.004 133.173 129.122 133.995 129.359C134.818 129.584 135.528 129.883 136.126 130.257C136.736 130.619 137.253 131.03 137.677 131.492C138.1 131.94 138.468 132.389 138.779 132.838C139.664 132.264 140.536 131.741 141.396 131.267C142.255 130.793 143.121 130.388 143.993 130.051C144.866 129.714 145.756 129.459 146.666 129.284C147.575 129.097 148.522 129.004 149.507 129.004C151.076 129.004 152.478 129.222 153.711 129.658C154.957 130.095 156.01 130.693 156.87 131.454C157.729 132.215 158.383 133.113 158.832 134.148C159.293 135.17 159.523 136.267 159.523 137.44V155.359H152.59V138.431C152.59 137.745 152.484 137.153 152.272 136.654C152.061 136.155 151.774 135.75 151.413 135.438C151.064 135.127 150.646 134.896 150.161 134.746C149.687 134.596 149.183 134.522 148.647 134.522C146.155 134.522 143.314 135.644 140.125 137.888C140.162 138.1 140.187 138.35 140.2 138.637C140.225 138.923 140.237 139.21 140.237 139.497V155.359H133.304V138.281C133.304 137.595 133.198 137.016 132.986 136.542C132.774 136.055 132.482 135.663 132.108 135.363C131.746 135.064 131.323 134.852 130.837 134.727C130.364 134.59 129.859 134.522 129.323 134.522C128.675 134.522 127.99 134.615 127.267 134.802C126.557 134.989 125.835 135.251 125.1 135.588C124.377 135.925 123.661 136.324 122.95 136.785C122.253 137.246 121.586 137.745 120.951 138.281V155.359H114.017V129.658H120.951ZM189.238 155.359V152.834C188.353 153.32 187.4 153.75 186.379 154.124C185.369 154.498 184.317 154.816 183.22 155.078C182.124 155.34 180.99 155.533 179.819 155.658C178.66 155.795 177.489 155.864 176.306 155.864C174.923 155.864 173.583 155.733 172.288 155.471C171.004 155.209 169.864 154.785 168.868 154.199C167.871 153.613 167.067 152.846 166.457 151.898C165.859 150.951 165.56 149.791 165.56 148.419C165.56 146.686 166.033 145.246 166.98 144.099C167.927 142.939 169.372 141.991 171.316 141.255C173.259 140.52 175.714 139.952 178.679 139.553C181.657 139.154 185.176 138.843 189.238 138.618V138.076C189.238 137.652 189.126 137.234 188.901 136.822C188.677 136.398 188.266 136.031 187.668 135.719C187.083 135.394 186.273 135.133 185.239 134.933C184.217 134.734 182.909 134.634 181.314 134.634C180.056 134.634 178.81 134.702 177.576 134.84C176.356 134.964 175.172 135.139 174.026 135.363C172.892 135.588 171.814 135.85 170.792 136.149C169.771 136.448 168.843 136.76 168.008 137.084V130.912C168.88 130.687 169.858 130.469 170.942 130.257C172.026 130.045 173.153 129.864 174.325 129.714C175.496 129.552 176.679 129.428 177.875 129.34C179.071 129.241 180.218 129.191 181.314 129.191C183.47 129.191 185.457 129.372 187.276 129.733C189.095 130.082 190.658 130.631 191.966 131.379C193.287 132.127 194.315 133.075 195.05 134.222C195.797 135.37 196.171 136.735 196.171 138.319V155.359H189.238ZM189.238 143.631C186.572 143.731 184.304 143.874 182.435 144.061C180.579 144.248 179.034 144.466 177.801 144.716C176.567 144.965 175.595 145.233 174.885 145.52C174.188 145.807 173.664 146.1 173.316 146.399C172.967 146.699 172.749 146.998 172.661 147.297C172.587 147.596 172.549 147.871 172.549 148.12C172.549 148.419 172.63 148.713 172.792 148.999C172.954 149.274 173.235 149.517 173.633 149.729C174.044 149.941 174.586 150.109 175.259 150.234C175.932 150.358 176.779 150.421 177.801 150.421C178.934 150.421 180.043 150.334 181.127 150.159C182.211 149.984 183.239 149.747 184.211 149.448C185.182 149.136 186.092 148.775 186.939 148.363C187.799 147.939 188.565 147.49 189.238 147.017V143.631Z" fill="#DFECF1"/>
<mask id="mask0_14_75" style="mask-type:luminance" maskUnits="userSpaceOnUse" x="0" y="125" width="200" height="35">
<path d="M199.874 125.564H0V159.615H199.874V125.564Z" fill="white"/>
<path d="M32.8728 138.431C32.8728 139.715 32.6859 140.9 32.3121 141.985C31.9383 143.057 31.334 143.986 30.4994 144.772C29.6769 145.545 28.6055 146.15 27.2848 146.586C25.9642 147.023 24.3571 147.241 22.4634 147.241H10.9513V155.359H4.01794V129.658H22.4634C24.3571 129.658 25.9642 129.877 27.2848 130.313C28.6055 130.737 29.6769 131.342 30.4994 132.127C31.334 132.901 31.9383 133.823 32.3121 134.896C32.6859 135.968 32.8728 137.147 32.8728 138.431ZM25.8647 138.543C25.8647 137.945 25.7773 137.433 25.6029 137.009C25.4409 136.573 25.1668 136.218 24.7807 135.943C24.3945 135.669 23.89 135.469 23.2669 135.345C22.6439 135.207 21.8778 135.139 20.9683 135.139H10.9513V141.761H20.9683C21.8778 141.761 22.6439 141.711 23.2669 141.611C23.89 141.499 24.3945 141.318 24.7807 141.068C25.1668 140.806 25.4409 140.47 25.6029 140.058C25.7773 139.647 25.8647 139.142 25.8647 138.543ZM62.2508 135.476C62.0639 135.413 61.7898 135.332 61.4284 135.232C61.0796 135.12 60.6684 135.014 60.1951 134.915C59.7216 134.802 59.1983 134.709 58.6252 134.634C58.0645 134.559 57.4853 134.522 56.8872 134.522C55.6414 134.522 54.4764 134.677 53.3926 134.989C52.3209 135.288 51.3181 135.694 50.3836 136.205C49.4493 136.704 48.5771 137.277 47.7672 137.926C46.9698 138.562 46.2348 139.216 45.562 139.89V155.359H38.6287V129.658H45.562V133.83C46.3968 133.206 47.2503 132.608 48.1223 132.034C49.0071 131.448 49.9226 130.93 50.8695 130.481C51.8289 130.032 52.838 129.677 53.8972 129.415C54.9561 129.141 56.0773 129.004 57.261 129.004C57.7094 129.004 58.1643 129.029 58.6252 129.079C59.0986 129.116 59.5534 129.166 59.9895 129.228C60.4379 129.291 60.8553 129.359 61.2417 129.434C61.6278 129.509 61.9642 129.584 62.2508 129.658V135.476ZM66.6612 155.359V129.658H73.5945V155.359H66.6612ZM105.309 136.897C104.823 136.66 104.181 136.392 103.384 136.093C102.586 135.793 101.683 135.513 100.674 135.251C99.6648 134.977 98.5683 134.752 97.3848 134.578C96.2013 134.391 94.9865 134.297 93.7405 134.297C92.7439 134.297 91.8904 134.328 91.1802 134.391C90.4826 134.453 89.8908 134.534 89.4049 134.634C88.9314 134.734 88.5514 134.852 88.2648 134.989C87.9907 135.114 87.7789 135.245 87.6295 135.382C87.48 135.519 87.3803 135.656 87.3305 135.793C87.2931 135.931 87.2744 136.055 87.2744 136.168C87.2744 136.542 87.4613 136.872 87.8351 137.159C88.2089 137.433 88.7196 137.683 89.3675 137.907C90.0154 138.119 90.7692 138.325 91.6288 138.524C92.4885 138.711 93.3979 138.911 94.3573 139.123C95.3291 139.322 96.3259 139.547 97.3474 139.796C98.3816 140.033 99.3782 140.314 100.338 140.638C101.309 140.962 102.225 141.343 103.085 141.779C103.944 142.203 104.698 142.702 105.346 143.276C105.994 143.849 106.505 144.51 106.878 145.258C107.252 146.007 107.439 146.861 107.439 147.821C107.439 149.055 107.221 150.115 106.785 151.001C106.349 151.886 105.763 152.634 105.028 153.245C104.306 153.856 103.465 154.349 102.505 154.723C101.546 155.085 100.537 155.365 99.4779 155.565C98.4314 155.764 97.3661 155.895 96.2821 155.957C95.2106 156.02 94.1891 156.051 93.2172 156.051C90.6756 156.051 88.3209 155.839 86.1532 155.415C83.9977 155.004 82.0915 154.486 80.4344 153.863V147.727C82.1414 148.675 84.0849 149.417 86.2652 149.953C88.4581 150.489 90.8002 150.758 93.2921 150.758C94.7622 150.758 95.9582 150.683 96.8802 150.533C97.8147 150.371 98.5434 150.171 99.0667 149.935C99.59 149.685 99.9451 149.417 100.132 149.13C100.319 148.843 100.412 148.569 100.412 148.307C100.412 147.896 100.225 147.54 99.8517 147.241C99.4779 146.929 98.967 146.661 98.3193 146.437C97.6714 146.2 96.9176 145.988 96.058 145.801C95.1983 145.601 94.2825 145.408 93.3108 145.221C92.3514 145.021 91.3609 144.809 90.3392 144.585C89.3178 144.36 88.3209 144.099 87.3492 143.799C86.3898 143.488 85.4804 143.132 84.6207 142.733C83.7611 142.322 83.0073 141.841 82.3594 141.293C81.7115 140.732 81.2008 140.089 80.827 139.366C80.4531 138.63 80.2662 137.783 80.2662 136.822C80.2662 135.688 80.4657 134.709 80.8644 133.886C81.2631 133.063 81.7987 132.364 82.4714 131.791C83.1568 131.205 83.9416 130.731 84.8263 130.369C85.7232 130.008 86.6639 129.727 87.6482 129.527C88.6324 129.328 89.629 129.191 90.6384 129.116C91.6476 129.041 92.6067 129.004 93.5164 129.004C94.513 129.004 95.5347 129.053 96.5813 129.153C97.6402 129.253 98.6806 129.397 99.702 129.584C100.724 129.758 101.708 129.964 102.655 130.201C103.614 130.438 104.499 130.687 105.309 130.949V136.897ZM120.951 129.658V132.483C121.561 132.096 122.222 131.697 122.932 131.286C123.654 130.874 124.433 130.5 125.268 130.163C126.115 129.827 127.018 129.552 127.978 129.34C128.949 129.116 129.996 129.004 131.117 129.004C132.214 129.004 133.173 129.122 133.995 129.359C134.818 129.584 135.528 129.883 136.126 130.257C136.736 130.619 137.253 131.03 137.677 131.492C138.1 131.94 138.468 132.389 138.779 132.838C139.664 132.264 140.536 131.741 141.396 131.267C142.255 130.793 143.121 130.388 143.993 130.051C144.866 129.714 145.756 129.459 146.666 129.284C147.575 129.097 148.522 129.004 149.507 129.004C151.076 129.004 152.478 129.222 153.711 129.658C154.957 130.095 156.01 130.693 156.87 131.454C157.729 132.215 158.383 133.113 158.832 134.148C159.293 135.17 159.523 136.267 159.523 137.44V155.359H152.59V138.431C152.59 137.745 152.484 137.153 152.272 136.654C152.061 136.155 151.774 135.75 151.413 135.438C151.064 135.127 150.646 134.896 150.161 134.746C149.687 134.596 149.183 134.522 148.647 134.522C146.155 134.522 143.314 135.644 140.125 137.888C140.162 138.1 140.187 138.35 140.2 138.637C140.225 138.923 140.237 139.21 140.237 139.497V155.359H133.304V138.281C133.304 137.595 133.198 137.016 132.986 136.542C132.774 136.055 132.482 135.663 132.108 135.363C131.746 135.064 131.323 134.852 130.837 134.727C130.364 134.59 129.859 134.522 129.323 134.522C128.675 134.522 127.99 134.615 127.267 134.802C126.557 134.989 125.835 135.251 125.1 135.588C124.377 135.925 123.661 136.324 122.95 136.785C122.253 137.246 121.586 137.745 120.951 138.281V155.359H114.017V129.658H120.951ZM189.238 155.359V152.834C188.353 153.32 187.4 153.75 186.379 154.124C185.369 154.498 184.317 154.816 183.22 155.078C182.124 155.34 180.99 155.533 179.819 155.658C178.66 155.795 177.489 155.864 176.306 155.864C174.923 155.864 173.583 155.733 172.288 155.471C171.004 155.209 169.864 154.785 168.868 154.199C167.871 153.613 167.067 152.846 166.457 151.898C165.859 150.951 165.56 149.791 165.56 148.419C165.56 146.686 166.033 145.246 166.98 144.099C167.927 142.939 169.372 141.991 171.316 141.255C173.259 140.52 175.714 139.952 178.679 139.553C181.657 139.154 185.176 138.843 189.238 138.618V138.076C189.238 137.652 189.126 137.234 188.901 136.822C188.677 136.398 188.266 136.031 187.668 135.719C187.083 135.394 186.273 135.133 185.239 134.933C184.217 134.734 182.909 134.634 181.314 134.634C180.056 134.634 178.81 134.702 177.576 134.84C176.356 134.964 175.172 135.139 174.026 135.363C172.892 135.588 171.814 135.85 170.792 136.149C169.771 136.448 168.843 136.76 168.008 137.084V130.912C168.88 130.687 169.858 130.469 170.942 130.257C172.026 130.045 173.153 129.864 174.325 129.714C175.496 129.552 176.679 129.428 177.875 129.34C179.071 129.241 180.218 129.191 181.314 129.191C183.47 129.191 185.457 129.372 187.276 129.733C189.095 130.082 190.658 130.631 191.966 131.379C193.287 132.127 194.315 133.075 195.05 134.222C195.797 135.37 196.171 136.735 196.171 138.319V155.359H189.238ZM189.238 143.631C186.572 143.731 184.304 143.874 182.435 144.061C180.579 144.248 179.034 144.466 177.801 144.716C176.567 144.965 175.595 145.233 174.885 145.52C174.188 145.807 173.664 146.1 173.316 146.399C172.967 146.699 172.749 146.998 172.661 147.297C172.587 147.596 172.549 147.871 172.549 148.12C172.549 148.419 172.63 148.713 172.792 148.999C172.954 149.274 173.235 149.517 173.633 149.729C174.044 149.941 174.586 150.109 175.259 150.234C175.932 150.358 176.779 150.421 177.801 150.421C178.934 150.421 180.043 150.334 181.127 150.159C182.211 149.984 183.239 149.747 184.211 149.448C185.182 149.136 186.092 148.775 186.939 148.363C187.799 147.939 188.565 147.49 189.238 147.017V143.631Z" fill="black"/>
</mask>
<g mask="url(#mask0_14_75)">
<path d="M32.3122 141.985L34.3198 142.686L34.3224 142.679L32.3122 141.985ZM10.9514 147.241V145.113H8.82509V147.241H10.9514ZM10.9514 155.359V157.487H13.0777V155.359H10.9514ZM4.01804 155.359H1.89172V157.487H4.01804V155.359ZM4.01804 129.658V127.53H1.89172V129.658H4.01804ZM27.2849 130.313L26.6183 132.334L26.6356 132.34L27.2849 130.313ZM30.4995 132.127L29.0313 133.667L29.0432 133.678L29.0553 133.689L30.4995 132.127ZM25.603 137.009L23.6098 137.75L23.6228 137.785L23.6368 137.82L25.603 137.009ZM23.267 135.345L22.8101 137.423L22.8301 137.428L22.8501 137.432L23.267 135.345ZM10.9514 135.139V133.011H8.82509V135.139H10.9514ZM10.9514 141.761H8.82509V143.889H10.9514V141.761ZM23.267 141.611L23.603 143.712L23.6234 143.709L23.6436 143.705L23.267 141.611ZM24.7808 141.068L25.9334 142.857L25.9536 142.844L25.9732 142.83L24.7808 141.068ZM25.603 140.058L23.6455 139.227L23.6349 139.252L23.6247 139.278L25.603 140.058ZM32.8729 138.431H30.7466C30.7466 139.507 30.5903 140.455 30.302 141.291L32.3122 141.985L34.3224 142.679C34.7815 141.346 34.9992 139.924 34.9992 138.431H32.8729ZM32.3122 141.985L30.3045 141.284C30.0447 142.03 29.6307 142.668 29.0428 143.222L30.4995 144.772L31.9552 146.323C33.0366 145.305 33.8323 144.085 34.3198 142.686L32.3122 141.985ZM30.4995 144.772L29.0428 143.222C28.4925 143.739 27.7117 144.204 26.6183 144.566L27.2849 146.586L27.9517 148.607C29.4995 148.096 30.861 147.352 31.9552 146.323L30.4995 144.772ZM27.2849 146.586L26.6183 144.566C25.5747 144.91 24.2067 145.113 22.4635 145.113V147.241V149.369C24.5075 149.369 26.354 149.135 27.9517 148.607L27.2849 146.586ZM22.4635 147.241V145.113H10.9514V147.241V149.369H22.4635V147.241ZM10.9514 147.241H8.82509V155.359H10.9514H13.0777V147.241H10.9514ZM10.9514 155.359V153.231H4.01804V155.359V157.487H10.9514V155.359ZM4.01804 155.359H6.14436V129.658H4.01804H1.89172V155.359H4.01804ZM4.01804 129.658V131.787H22.4635V129.658V127.53H4.01804V129.658ZM22.4635 129.658V131.787C24.2067 131.787 25.5747 131.989 26.6183 132.334L27.2849 130.313L27.9517 128.292C26.354 127.764 24.5075 127.53 22.4635 127.53V129.658ZM27.2849 130.313L26.6356 132.34C27.7162 132.687 28.4872 133.147 29.0313 133.667L30.4995 132.127L31.9675 130.588C30.8671 129.537 29.495 128.788 27.9345 128.286L27.2849 130.313ZM30.4995 132.127L29.0553 133.689C29.6352 134.227 30.0455 134.854 30.3045 135.597L32.3122 134.896L34.3198 134.195C33.8312 132.793 33.033 131.575 31.9435 130.565L30.4995 132.127ZM32.3122 134.896L30.3045 135.597C30.5901 136.416 30.7466 137.354 30.7466 138.431H32.8729H34.9992C34.9992 136.939 34.7817 135.52 34.3198 134.195L32.3122 134.896ZM25.8648 138.543H27.9911C27.9911 137.747 27.8763 136.946 27.5692 136.199L25.603 137.009L23.6368 137.82C23.6787 137.921 23.7385 138.142 23.7385 138.543H25.8648ZM25.603 137.009L27.5962 136.268C27.2828 135.424 26.7391 134.725 26.0113 134.208L24.7808 135.943L23.5501 137.679C23.5813 137.701 23.5913 137.714 23.5928 137.716C23.5941 137.718 23.6007 137.726 23.6098 137.75L25.603 137.009ZM24.7808 135.943L26.0113 134.208C25.3136 133.712 24.5052 133.422 23.684 133.258L23.267 135.345L22.8501 137.432C23.2747 137.517 23.4754 137.626 23.5501 137.679L24.7808 135.943ZM23.267 135.345L23.7238 133.266C22.9024 133.085 21.9723 133.011 20.9684 133.011V135.139V137.267C21.7833 137.267 22.3857 137.33 22.8101 137.423L23.267 135.345ZM20.9684 135.139V133.011H10.9514V135.139V137.267H20.9684V135.139ZM10.9514 135.139H8.82509V141.761H10.9514H13.0777V135.139H10.9514ZM10.9514 141.761V143.889H20.9684V141.761V139.632H10.9514V141.761ZM20.9684 141.761V143.889C21.9458 143.889 22.8322 143.836 23.603 143.712L23.267 141.611L22.9311 139.509C22.4559 139.586 21.8099 139.632 20.9684 139.632V141.761ZM23.267 141.611L23.6436 143.705C24.4457 143.561 25.2405 143.304 25.9334 142.857L24.7808 141.068L23.6281 139.28C23.5488 139.331 23.3342 139.436 22.8903 139.516L23.267 141.611ZM24.7808 141.068L25.9732 142.83C26.6934 142.342 27.2533 141.672 27.5813 140.838L25.603 140.058L23.6247 139.278C23.623 139.283 23.6226 139.283 23.6238 139.281C23.6251 139.278 23.6266 139.276 23.6277 139.275C23.6285 139.274 23.6289 139.276 23.6238 139.281C23.6185 139.285 23.6062 139.294 23.5881 139.306L24.7808 141.068ZM25.603 140.058L27.5605 140.89C27.8773 140.142 27.9911 139.336 27.9911 138.543H25.8648H23.7385C23.7385 138.948 23.6776 139.151 23.6455 139.227L25.603 140.058ZM62.2509 135.476L61.5784 137.495L64.3772 138.428V135.476H62.2509ZM61.4285 135.233L60.7778 137.259L60.8203 137.272L60.8631 137.284L61.4285 135.233ZM60.1952 134.915L59.7051 136.985L59.731 136.991L59.7572 136.997L60.1952 134.915ZM58.6253 134.634L58.3442 136.744L58.3502 136.744L58.6253 134.634ZM53.3927 134.989L53.9642 137.039L53.9798 137.035L53.3927 134.989ZM50.3837 136.205L51.3844 138.083L51.4037 138.072L50.3837 136.205ZM47.7673 137.926L49.0924 139.59L49.0956 139.588L47.7673 137.926ZM45.5621 139.89L44.0586 138.385L43.4358 139.008V139.89H45.5621ZM45.5621 155.359V157.487H47.6884V155.359H45.5621ZM38.6288 155.359H36.5025V157.487H38.6288V155.359ZM38.6288 129.658V127.53H36.5025V129.658H38.6288ZM45.5621 129.658H47.6884V127.53H45.5621V129.658ZM45.5621 133.83H43.4358V138.073L46.8339 135.535L45.5621 133.83ZM48.1224 132.034L49.2902 133.812L49.2961 133.809L48.1224 132.034ZM50.8696 130.481L49.9691 128.554L49.9593 128.558L50.8696 130.481ZM53.8973 129.415L54.4072 131.481L54.4299 131.476L53.8973 129.415ZM58.6253 129.079L58.3968 131.194L58.4274 131.198L58.458 131.2L58.6253 129.079ZM59.9896 129.228L59.6889 131.335L59.697 131.336L59.9896 129.228ZM62.2509 129.658H64.3772V128.014L62.7876 127.599L62.2509 129.658ZM62.2509 135.476L62.9233 133.457C62.6824 133.376 62.3653 133.284 61.9941 133.181L61.4285 135.233L60.8631 137.284C61.2143 137.381 61.4455 137.45 61.5784 137.495L62.2509 135.476ZM61.4285 135.233L62.0793 133.206C61.6426 133.066 61.1571 132.942 60.6332 132.832L60.1952 134.915L59.7572 136.997C60.1799 137.086 60.5169 137.175 60.7778 137.259L61.4285 135.233ZM60.1952 134.915L60.6851 132.844C60.1291 132.712 59.5329 132.606 58.9003 132.524L58.6253 134.634L58.3502 136.744C58.8641 136.811 59.3143 136.893 59.7051 136.985L60.1952 134.915ZM58.6253 134.634L58.9064 132.524C58.2475 132.436 57.5741 132.393 56.8873 132.393V134.522V136.65C57.3968 136.65 57.882 136.682 58.3442 136.744L58.6253 134.634ZM56.8873 134.522V132.393C55.4633 132.393 54.0991 132.572 52.8054 132.944L53.3927 134.989L53.9798 137.035C54.8541 136.783 55.8195 136.65 56.8873 136.65V134.522ZM53.3927 134.989L52.8211 132.939C51.6006 133.28 50.4465 133.745 49.3637 134.338L50.3837 136.205L51.4037 138.072C52.1898 137.642 53.0416 137.297 53.9642 137.039L53.3927 134.989ZM50.3837 136.205L49.3831 134.327C48.3355 134.886 47.3533 135.532 46.439 136.264L47.7673 137.926L49.0956 139.588C49.8011 139.023 50.5632 138.521 51.3844 138.083L50.3837 136.205ZM47.7673 137.926L46.4422 136.262C45.587 136.944 44.7917 137.651 44.0586 138.385L45.5621 139.89L47.0656 141.395C47.6782 140.782 48.3531 140.18 49.0924 139.59L47.7673 137.926ZM45.5621 139.89H43.4358V155.359H45.5621H47.6884V139.89H45.5621ZM45.5621 155.359V153.231H38.6288V155.359V157.487H45.5621V155.359ZM38.6288 155.359H40.7551V129.658H38.6288H36.5025V155.359H38.6288ZM38.6288 129.658V131.787H45.5621V129.658V127.53H38.6288V129.658ZM45.5621 129.658H43.4358V133.83H45.5621H47.6884V129.658H45.5621ZM45.5621 133.83L46.8339 135.535C47.6346 134.937 48.4535 134.363 49.2902 133.812L48.1224 132.034L46.9548 130.255C46.0473 130.852 45.1592 131.475 44.2904 132.124L45.5621 133.83ZM48.1224 132.034L49.2961 133.809C50.0975 133.278 50.9253 132.81 51.7799 132.405L50.8696 130.481L49.9593 128.558C48.9202 129.051 47.9166 129.618 46.9487 130.259L48.1224 132.034ZM50.8696 130.481L51.7703 132.409C52.6004 132.021 53.4786 131.711 54.4072 131.481L53.8973 129.415L53.3872 127.349C52.1979 127.643 51.0576 128.044 49.9691 128.554L50.8696 130.481ZM53.8973 129.415L54.4299 131.476C55.3013 131.25 56.2426 131.132 57.2611 131.132V129.004V126.875C55.9124 126.875 54.6111 127.032 53.3644 127.355L53.8973 129.415ZM57.2611 129.004V131.132C57.6307 131.132 58.0091 131.153 58.3968 131.194L58.6253 129.079L58.8539 126.963C58.3196 126.905 57.7884 126.875 57.2611 126.875V129.004ZM58.6253 129.079L58.458 131.2C58.8903 131.234 59.3004 131.279 59.6889 131.335L59.9896 129.228L60.2902 127.121C59.8067 127.052 59.3073 126.998 58.7927 126.957L58.6253 129.079ZM59.9896 129.228L59.697 131.336C60.1138 131.394 60.4935 131.457 60.8376 131.523L61.2418 129.434L61.6458 127.345C61.2175 127.262 60.7625 127.187 60.2822 127.12L59.9896 129.228ZM61.2418 129.434L60.8376 131.523C61.1929 131.592 61.4829 131.657 61.714 131.718L62.2509 129.658L62.7876 127.599C62.4457 127.51 62.063 127.425 61.6458 127.345L61.2418 129.434ZM62.2509 129.658H60.1246V135.476H62.2509H64.3772V129.658H62.2509ZM66.6613 155.359H64.535V157.487H66.6613V155.359ZM66.6613 129.658V127.53H64.535V129.658H66.6613ZM73.5946 129.658H75.7209V127.53H73.5946V129.658ZM73.5946 155.359V157.487H75.7209V155.359H73.5946ZM66.6613 155.359H68.7876V129.658H66.6613H64.535V155.359H66.6613ZM66.6613 129.658V131.787H73.5946V129.658V127.53H66.6613V129.658ZM73.5946 129.658H71.4683V155.359H73.5946H75.7209V129.658H73.5946ZM73.5946 155.359V153.231H66.6613V155.359V157.487H73.5946V155.359ZM105.309 136.897L104.377 138.81L107.435 140.301V136.897H105.309ZM100.674 135.251L100.117 137.305L100.14 137.311L100.674 135.251ZM97.3849 134.578L97.0532 136.68L97.0749 136.683L97.3849 134.578ZM91.1803 134.391L90.9947 132.271L90.9913 132.271L91.1803 134.391ZM89.405 134.634L88.9777 132.549L88.967 132.551L89.405 134.634ZM88.2649 134.989L89.1448 136.927L89.1637 136.918L89.1824 136.909L88.2649 134.989ZM87.3306 135.794L85.3323 135.066L85.3023 135.149L85.2791 135.234L87.3306 135.794ZM87.8352 137.159L86.5415 138.848L86.5594 138.862L86.5777 138.875L87.8352 137.159ZM89.3676 137.907L88.6721 139.918L88.6893 139.924L88.707 139.93L89.3676 137.907ZM91.629 138.524L91.1486 140.598L91.1771 140.604L91.629 138.524ZM94.3574 139.123L93.899 141.201L93.9145 141.205L93.9301 141.208L94.3574 139.123ZM97.3475 139.796L96.8437 141.864L96.8584 141.868L96.8731 141.871L97.3475 139.796ZM100.338 140.638L99.6575 142.655L99.6652 142.657L100.338 140.638ZM103.085 141.779L102.123 143.677L102.145 143.688L103.085 141.779ZM105.028 153.245L103.67 151.608L103.656 151.62L105.028 153.245ZM102.505 154.723L103.255 156.715L103.277 156.706L102.505 154.723ZM99.478 155.565L99.0847 153.473L99.0802 153.474L99.478 155.565ZM86.1533 155.415L86.5611 153.326L86.5517 153.325L86.1533 155.415ZM80.4345 153.863H78.3082V155.336L79.6863 155.855L80.4345 153.863ZM80.4345 147.727L81.466 145.866L78.3082 144.113V147.727H80.4345ZM86.2653 149.953L85.758 152.02L85.7607 152.021L86.2653 149.953ZM96.8803 150.533L97.2207 152.634L97.2435 152.63L96.8803 150.533ZM99.0668 149.935L99.9433 151.874L99.9622 151.865L99.9811 151.856L99.0668 149.935ZM99.8518 147.241L98.4906 148.876L98.5069 148.89L98.5235 148.903L99.8518 147.241ZM98.3194 146.437L97.5897 148.436L97.6067 148.442L97.6237 148.448L98.3194 146.437ZM96.0581 145.801L95.5777 147.874L95.6064 147.88L96.0581 145.801ZM93.3109 145.221L92.8782 147.305L92.8937 147.308L92.9092 147.311L93.3109 145.221ZM87.3493 143.799L86.6927 145.824L86.7082 145.829L86.724 145.833L87.3493 143.799ZM84.6208 142.733L83.7033 144.653L83.7263 144.664L84.6208 142.733ZM82.3595 141.293L80.968 142.902L80.9861 142.917L82.3595 141.293ZM80.8271 139.366L78.9317 140.331L78.9385 140.344L80.8271 139.366ZM82.4715 131.791L83.8505 133.411L83.853 133.409L82.4715 131.791ZM84.8264 130.369L84.0318 128.395L84.0223 128.399L84.8264 130.369ZM96.5814 129.153L96.3798 131.272L96.3821 131.272L96.5814 129.153ZM99.7021 129.584L99.3196 131.677L99.3445 131.681L99.7021 129.584ZM102.655 130.201L102.139 132.266L102.146 132.267L102.655 130.201ZM105.309 130.949H107.435V129.4L105.962 128.924L105.309 130.949ZM105.309 136.897L106.24 134.984C105.67 134.706 104.959 134.411 104.13 134.1L103.384 136.093L102.637 138.086C103.403 138.373 103.976 138.615 104.377 138.81L105.309 136.897ZM103.384 136.093L104.13 134.1C103.25 133.77 102.274 133.468 101.208 133.191L100.674 135.251L100.14 137.311C101.093 137.558 101.923 137.817 102.637 138.086L103.384 136.093ZM100.674 135.251L101.231 133.197C100.13 132.898 98.9503 132.657 97.6949 132.472L97.3849 134.578L97.0749 136.683C98.1867 136.847 99.1995 137.056 100.117 137.305L100.674 135.251ZM97.3849 134.578L97.7166 132.476C96.4189 132.27 95.0931 132.169 93.7406 132.169V134.297V136.425C94.8799 136.425 95.9836 136.511 97.0532 136.68L97.3849 134.578ZM93.7406 134.297V132.169C92.7042 132.169 91.7854 132.201 90.9947 132.271L91.1803 134.391L91.3661 136.511C91.9957 136.456 92.7838 136.425 93.7406 136.425V134.297ZM91.1803 134.391L90.9913 132.271C90.2432 132.338 89.5669 132.428 88.9777 132.549L89.405 134.634L89.8322 136.719C90.2147 136.64 90.7221 136.568 91.3695 136.511L91.1803 134.391ZM89.405 134.634L88.967 132.551C88.4044 132.67 87.8443 132.832 87.3476 133.069L88.2649 134.989L89.1824 136.909C89.2588 136.873 89.4586 136.797 89.8431 136.717L89.405 134.634ZM88.2649 134.989L87.385 133.052C86.9959 133.229 86.5666 133.47 86.1928 133.813L87.6296 135.382L89.0663 136.951C89.044 136.971 89.0276 136.984 89.0198 136.99C89.0119 136.996 89.0108 136.996 89.0178 136.992C89.0336 136.982 89.0733 136.959 89.1448 136.927L88.2649 134.989ZM87.6296 135.382L86.1928 133.813C85.8843 134.096 85.5356 134.507 85.3323 135.066L87.3306 135.794L89.3289 136.521C89.2252 136.806 89.0759 136.942 89.0663 136.951L87.6296 135.382ZM87.3306 135.794L85.2791 135.234C85.2047 135.507 85.1482 135.824 85.1482 136.168H87.2745H89.4008C89.4008 136.229 89.3957 136.276 89.3914 136.306C89.387 136.335 89.3825 136.352 89.3821 136.354L87.3306 135.794ZM87.2745 136.168H85.1482C85.1482 137.373 85.7933 138.274 86.5415 138.848L87.8352 137.159L89.1288 135.47C89.1156 135.46 89.1884 135.512 89.2651 135.648C89.3498 135.797 89.4008 135.982 89.4008 136.168H87.2745ZM87.8352 137.159L86.5777 138.875C87.1839 139.32 87.9098 139.654 88.6721 139.918L89.3676 137.907L90.0631 135.896C89.5296 135.711 89.2339 135.547 89.0927 135.443L87.8352 137.159ZM89.3676 137.907L88.707 139.93C89.4284 140.166 90.2447 140.388 91.1486 140.598L91.629 138.524L92.1093 136.451C91.2938 136.262 90.6026 136.072 90.0283 135.884L89.3676 137.907ZM91.629 138.524L91.1771 140.604C92.0344 140.791 92.9417 140.99 93.899 141.201L94.3574 139.123L94.8159 137.045C93.8546 136.833 92.9428 136.632 92.0806 136.445L91.629 138.524ZM94.3574 139.123L93.9301 141.208C94.8748 141.402 95.8459 141.621 96.8437 141.864L97.3475 139.796L97.8514 137.729C96.8059 137.474 95.7836 137.243 94.7846 137.038L94.3574 139.123ZM97.3475 139.796L96.8731 141.871C97.841 142.093 98.7687 142.354 99.6575 142.655L100.338 140.638L101.018 138.622C99.9879 138.274 98.9224 137.974 97.8221 137.722L97.3475 139.796ZM100.338 140.638L99.6652 142.657C100.544 142.95 101.362 143.291 102.123 143.677L103.085 141.779L104.047 139.881C103.088 139.394 102.075 138.975 101.01 138.619L100.338 140.638ZM103.085 141.779L102.145 143.688C102.853 144.037 103.445 144.434 103.937 144.87L105.346 143.276L106.755 141.682C105.951 140.97 105.036 140.369 104.025 139.87L103.085 141.779ZM105.346 143.276L103.937 144.87C104.389 145.269 104.729 145.714 104.977 146.21L106.878 145.258L108.78 144.307C108.281 143.306 107.6 142.429 106.755 141.682L105.346 143.276ZM106.878 145.258L104.977 146.21C105.183 146.622 105.313 147.142 105.313 147.821H107.439H109.565C109.565 146.579 109.322 145.391 108.78 144.307L106.878 145.258ZM107.439 147.821H105.313C105.313 148.809 105.138 149.531 104.878 150.06L106.785 151.001L108.692 151.942C109.304 150.7 109.565 149.302 109.565 147.821H107.439ZM106.785 151.001L104.878 150.06C104.569 150.686 104.168 151.194 103.67 151.608L105.028 153.245L106.387 154.882C107.359 154.074 108.129 153.086 108.692 151.942L106.785 151.001ZM105.028 153.245L103.656 151.62C103.128 152.066 102.494 152.444 101.734 152.74L102.505 154.723L103.277 156.706C104.436 156.254 105.484 155.646 106.401 154.871L105.028 153.245ZM102.505 154.723L101.756 152.731C100.918 153.047 100.029 153.295 99.0847 153.473L99.478 155.565L99.8714 157.656C101.046 157.435 102.174 157.122 103.255 156.715L102.505 154.723ZM99.478 155.565L99.0802 153.474C98.1263 153.656 97.1533 153.776 96.1603 153.833L96.2822 155.957L96.4042 158.082C97.579 158.015 98.7364 157.873 99.8759 157.655L99.478 155.565ZM96.2822 155.957L96.1603 153.833C95.1259 153.893 94.144 153.923 93.2173 153.923V156.051V158.179C94.2343 158.179 95.2958 158.147 96.4042 158.082L96.2822 155.957ZM93.2173 156.051V153.923C90.7927 153.923 88.5762 153.72 86.5611 153.326L86.1533 155.415L85.7454 157.504C88.0659 157.958 90.559 158.179 93.2173 158.179V156.051ZM86.1533 155.415L86.5517 153.325C84.4884 152.931 82.7031 152.442 81.1828 151.87L80.4345 153.863L79.6863 155.855C81.48 156.53 83.5073 157.076 85.7548 157.506L86.1533 155.415ZM80.4345 153.863H82.5609V147.727H80.4345H78.3082V153.863H80.4345ZM80.4345 147.727L79.4031 149.588C81.2974 150.64 83.4214 151.445 85.758 152.02L86.2653 149.953L86.7727 147.886C84.7486 147.389 82.9857 146.71 81.466 145.866L80.4345 147.727ZM86.2653 149.953L85.7607 152.021C88.1348 152.601 90.6477 152.886 93.2922 152.886V150.758V148.629C90.953 148.629 88.7816 148.378 86.7699 147.886L86.2653 149.953ZM93.2922 150.758V152.886C94.8195 152.886 96.1414 152.809 97.2207 152.634L96.8803 150.533L96.5399 148.432C95.7753 148.556 94.7051 148.629 93.2922 148.629V150.758ZM96.8803 150.533L97.2435 152.63C98.256 152.454 99.1848 152.217 99.9433 151.874L99.0668 149.935L98.1906 147.996C97.9022 148.126 97.3734 148.288 96.5171 148.436L96.8803 150.533ZM99.0668 149.935L99.9811 151.856C100.64 151.542 101.411 151.063 101.913 150.293L100.132 149.13L98.3511 147.968C98.4257 147.853 98.4819 147.82 98.4451 147.847C98.4102 147.874 98.3215 147.933 98.1527 148.013L99.0668 149.935ZM100.132 149.13L101.913 150.293C102.257 149.765 102.539 149.091 102.539 148.307H100.412H98.286C98.286 148.047 98.3809 147.922 98.3511 147.968L100.132 149.13ZM100.412 148.307H102.539C102.539 147.139 101.965 146.208 101.18 145.579L99.8518 147.241L98.5235 148.903C98.525 148.904 98.4572 148.85 98.3906 148.723C98.3192 148.588 98.286 148.438 98.286 148.307H100.412ZM99.8518 147.241L101.213 145.606C100.579 145.077 99.8138 144.702 99.0149 144.426L98.3194 146.437L97.6237 148.448C98.1206 148.62 98.377 148.781 98.4906 148.876L99.8518 147.241ZM98.3194 146.437L99.0492 144.438C98.2896 144.16 97.4395 143.923 96.5097 143.721L96.0581 145.801L95.6064 147.88C96.3959 148.052 97.0532 148.239 97.5897 148.436L98.3194 146.437ZM96.0581 145.801L96.5384 143.727C95.6496 143.521 94.7074 143.322 93.7123 143.131L93.3109 145.221L92.9092 147.311C93.8578 147.493 94.7472 147.681 95.5777 147.874L96.0581 145.801ZM93.3109 145.221L93.7434 143.137C92.7925 142.939 91.8097 142.729 90.7952 142.506L90.3393 144.585L89.8835 146.664C90.9124 146.89 91.9107 147.103 92.8782 147.305L93.3109 145.221ZM90.3393 144.585L90.7952 142.506C89.829 142.294 88.889 142.047 87.9747 141.765L87.3493 143.799L86.724 145.833C87.7531 146.15 88.8065 146.427 89.8835 146.664L90.3393 144.585ZM87.3493 143.799L88.0059 141.775C87.1224 141.488 86.293 141.163 85.5154 140.802L84.6208 142.733L83.7263 144.664C84.668 145.101 85.6574 145.487 86.6927 145.824L87.3493 143.799ZM84.6208 142.733L85.5381 140.813C84.8228 140.471 84.2262 140.086 83.7329 139.668L82.3595 141.293L80.9861 142.917C81.7884 143.597 82.6995 144.173 83.7033 144.653L84.6208 142.733ZM82.3595 141.293L83.7509 139.684C83.2963 139.29 82.9587 138.859 82.7157 138.388L80.8271 139.366L78.9385 140.344C79.4428 141.32 80.1269 142.173 80.968 142.902L82.3595 141.293ZM80.8271 139.366L82.7225 138.402C82.5234 138.01 82.3927 137.502 82.3927 136.822H80.2663H78.14C78.14 138.063 78.3831 139.251 78.9317 140.331L80.8271 139.366ZM80.2663 136.822H82.3927C82.3927 135.934 82.5487 135.287 82.7777 134.814L80.8645 133.886L78.9512 132.957C78.3826 134.131 78.14 135.442 78.14 136.822H80.2663ZM80.8645 133.886L82.7777 134.814C83.0525 134.247 83.4095 133.787 83.8505 133.411L82.4715 131.791L81.0928 130.171C80.1883 130.942 79.4737 131.878 78.9512 132.957L80.8645 133.886ZM82.4715 131.791L83.853 133.409C84.3557 132.979 84.9432 132.62 85.6304 132.339L84.8264 130.369L84.0223 128.399C82.9404 128.841 81.958 129.431 81.0903 130.173L82.4715 131.791ZM84.8264 130.369L85.6208 132.343C86.3929 132.032 87.2086 131.788 88.0704 131.613L87.6483 129.527L87.2262 127.442C86.1197 127.666 85.054 127.983 84.0318 128.395L84.8264 130.369ZM87.6483 129.527L88.0704 131.613C88.9664 131.432 89.8747 131.307 90.7954 131.238L90.6385 129.116L90.4814 126.994C89.3838 127.075 88.2985 127.224 87.2262 127.442L87.6483 129.527ZM90.6385 129.116L90.7954 131.238C91.758 131.167 92.6647 131.132 93.5165 131.132V129.004V126.875C92.549 126.875 91.5371 126.915 90.4814 126.994L90.6385 129.116ZM93.5165 129.004V131.132C94.4423 131.132 95.3966 131.178 96.3798 131.272L96.5814 129.153L96.7829 127.035C95.673 126.929 94.5839 126.875 93.5165 126.875V129.004ZM96.5814 129.153L96.3821 131.272C97.3811 131.366 98.3602 131.502 99.3196 131.677L99.7021 129.584L100.085 127.49C99.0011 127.292 97.8995 127.14 96.7806 127.034L96.5814 129.153ZM99.7021 129.584L99.3445 131.681C100.316 131.847 101.248 132.042 102.139 132.266L102.655 130.201L103.171 128.136C102.169 127.885 101.131 127.669 100.06 127.486L99.7021 129.584ZM102.655 130.201L102.146 132.267C103.064 132.494 103.9 132.73 104.655 132.974L105.309 130.949L105.962 128.924C105.098 128.644 104.165 128.382 103.164 128.135L102.655 130.201ZM105.309 130.949H103.183V136.897H105.309H107.435V130.949H105.309ZM120.951 129.658H123.077V127.53H120.951V129.658ZM120.951 132.483H118.825V136.348L122.088 134.281L120.951 132.483ZM122.932 131.286L121.88 129.436L121.866 129.444L122.932 131.286ZM125.268 130.163L124.483 128.185L124.473 128.189L125.268 130.163ZM127.978 129.34L128.436 131.419L128.456 131.414L127.978 129.34ZM133.995 129.359L133.407 131.405L133.436 131.412L133.995 129.359ZM136.126 130.257L134.999 132.062L135.021 132.075L135.043 132.089L136.126 130.257ZM137.677 131.492L136.111 132.932L136.131 132.953L137.677 131.492ZM138.78 132.838L137.033 134.052L138.208 135.745L139.936 134.624L138.78 132.838ZM146.666 129.284L147.066 131.375L147.094 131.369L146.666 129.284ZM153.711 129.658L153.003 131.665L153.009 131.667L153.711 129.658ZM158.832 134.148L156.881 134.994L156.887 135.009L156.894 135.023L158.832 134.148ZM159.523 155.359V157.487H161.65V155.359H159.523ZM152.59 155.359H150.464V157.487H152.59V155.359ZM151.413 135.438L149.997 137.026L150.011 137.038L150.024 137.05L151.413 135.438ZM150.161 134.746L149.52 136.776L149.535 136.78L150.161 134.746ZM140.125 137.889L138.902 136.148L137.796 136.926L138.031 138.258L140.125 137.889ZM140.2 138.637L138.076 138.729L138.077 138.775L138.082 138.821L140.2 138.637ZM140.237 155.359V157.487H142.363V155.359H140.237ZM133.304 155.359H131.178V157.487H133.304V155.359ZM132.986 136.542L131.037 137.392L131.045 137.411L132.986 136.542ZM132.108 135.363L130.752 137.003L130.766 137.014L130.78 137.025L132.108 135.363ZM130.837 134.727L130.246 136.772L130.277 136.781L130.309 136.789L130.837 134.727ZM127.267 134.802L126.735 132.742L126.726 132.744L127.267 134.802ZM125.1 135.588L124.215 133.653L124.202 133.659L125.1 135.588ZM122.95 136.785L121.793 135L121.778 135.009L122.95 136.785ZM120.951 138.281L119.58 136.654L118.825 137.292V138.281H120.951ZM120.951 155.359V157.487H123.077V155.359H120.951ZM114.018 155.359H111.891V157.487H114.018V155.359ZM114.018 129.658V127.53H111.891V129.658H114.018ZM120.951 129.658H118.825V132.483H120.951H123.077V129.658H120.951ZM120.951 132.483L122.088 134.281C122.672 133.912 123.308 133.527 123.997 133.128L122.932 131.286L121.866 129.444C121.135 129.868 120.451 130.281 119.814 130.684L120.951 132.483ZM122.932 131.286L123.983 133.135C124.617 132.775 125.309 132.441 126.063 132.137L125.268 130.163L124.473 128.189C123.557 128.559 122.692 128.974 121.88 129.436L122.932 131.286ZM125.268 130.163L126.053 132.141C126.786 131.85 127.579 131.608 128.436 131.419L127.978 129.34L127.519 127.262C126.457 127.497 125.444 127.804 124.483 128.185L125.268 130.163ZM127.978 129.34L128.456 131.414C129.253 131.23 130.137 131.132 131.117 131.132V129.004V126.875C129.855 126.875 128.646 127.002 127.499 127.267L127.978 129.34ZM131.117 129.004V131.132C132.068 131.132 132.821 131.236 133.407 131.405L133.995 129.359L134.584 127.314C133.525 127.009 132.36 126.875 131.117 126.875V129.004ZM133.995 129.359L133.436 131.412C134.098 131.593 134.609 131.818 134.999 132.062L136.126 130.257L137.253 128.452C136.447 127.948 135.537 127.574 134.555 127.306L133.995 129.359ZM136.126 130.257L135.043 132.089C135.498 132.358 135.846 132.642 136.111 132.932L137.677 131.492L139.243 130.051C138.661 129.418 137.975 128.879 137.209 128.425L136.126 130.257ZM137.677 131.492L136.131 132.953C136.491 133.334 136.789 133.701 137.033 134.052L138.78 132.838L140.526 131.624C140.147 131.078 139.71 130.547 139.223 130.03L137.677 131.492ZM138.78 132.838L139.936 134.624C140.781 134.076 141.609 133.579 142.422 133.131L141.396 131.267L140.37 129.403C139.463 129.903 138.547 130.453 137.623 131.052L138.78 132.838ZM141.396 131.267L142.422 133.131C143.201 132.701 143.981 132.337 144.759 132.037L143.994 130.051L143.228 128.066C142.262 128.438 141.31 128.885 140.37 129.403L141.396 131.267ZM143.994 130.051L144.759 132.037C145.514 131.745 146.283 131.525 147.066 131.375L146.666 129.284L146.265 127.194C145.23 127.393 144.218 127.684 143.228 128.066L143.994 130.051ZM146.666 129.284L147.094 131.369C147.854 131.213 148.658 131.132 149.507 131.132V129.004V126.875C148.387 126.875 147.297 126.982 146.238 127.2L146.666 129.284ZM149.507 129.004V131.132C150.882 131.132 152.037 131.323 153.003 131.665L153.711 129.658L154.42 127.652C152.919 127.121 151.271 126.875 149.507 126.875V129.004ZM153.711 129.658L153.009 131.667C154.034 132.026 154.837 132.496 155.462 133.049L156.87 131.454L158.278 129.86C157.183 128.891 155.881 128.164 154.414 127.65L153.711 129.658ZM156.87 131.454L155.462 133.049C156.092 133.607 156.559 134.251 156.881 134.994L158.832 134.148L160.783 133.301C160.208 131.974 159.367 130.823 158.278 129.86L156.87 131.454ZM158.832 134.148L156.894 135.023C157.225 135.758 157.397 136.555 157.397 137.44H159.523H161.65C161.65 135.98 161.361 134.582 160.77 133.272L158.832 134.148ZM159.523 137.44H157.397V155.359H159.523H161.65V137.44H159.523ZM159.523 155.359V153.231H152.59V155.359V157.487H159.523V155.359ZM152.59 155.359H154.717V138.431H152.59H150.464V155.359H152.59ZM152.59 138.431H154.717C154.717 137.532 154.578 136.644 154.229 135.822L152.273 136.654L150.316 137.487C150.39 137.662 150.464 137.958 150.464 138.431H152.59ZM152.273 136.654L154.229 135.822C153.907 135.064 153.441 134.378 152.801 133.826L151.413 135.438L150.024 137.05C150.108 137.122 150.214 137.247 150.316 137.487L152.273 136.654ZM151.413 135.438L152.829 133.851C152.232 133.318 151.539 132.944 150.786 132.712L150.161 134.746L149.535 136.78C149.754 136.848 149.896 136.935 149.997 137.026L151.413 135.438ZM150.161 134.746L150.801 132.717C150.105 132.497 149.383 132.393 148.647 132.393V134.522V136.65C148.983 136.65 149.27 136.697 149.52 136.776L150.161 134.746ZM148.647 134.522V132.393C145.533 132.393 142.262 133.783 138.902 136.148L140.125 137.889L141.348 139.629C144.367 137.505 146.777 136.65 148.647 136.65V134.522ZM140.125 137.889L138.031 138.258C138.048 138.354 138.066 138.507 138.076 138.729L140.2 138.637L142.324 138.544C142.309 138.193 142.277 137.847 142.219 137.519L140.125 137.889ZM140.2 138.637L138.082 138.821C138.101 139.047 138.111 139.272 138.111 139.497H140.237H142.363C142.363 139.149 142.348 138.8 142.318 138.452L140.2 138.637ZM140.237 139.497H138.111V155.359H140.237H142.363V139.497H140.237ZM140.237 155.359V153.231H133.304V155.359V157.487H140.237V155.359ZM133.304 155.359H135.43V138.281H133.304H131.178V155.359H133.304ZM133.304 138.281H135.43C135.43 137.388 135.294 136.493 134.927 135.673L132.986 136.542L131.045 137.411C131.102 137.538 131.178 137.803 131.178 138.281H133.304ZM132.986 136.542L134.935 135.691C134.601 134.923 134.108 134.239 133.436 133.701L132.108 135.363L130.78 137.025C130.855 137.086 130.948 137.188 131.037 137.392L132.986 136.542ZM132.108 135.363L133.464 133.724C132.844 133.211 132.133 132.863 131.365 132.666L130.837 134.727L130.309 136.789C130.513 136.841 130.649 136.917 130.752 137.003L132.108 135.363ZM130.837 134.727L131.428 132.683C130.747 132.486 130.042 132.393 129.323 132.393V134.522V136.65C129.676 136.65 129.98 136.695 130.246 136.772L130.837 134.727ZM129.323 134.522V132.393C128.471 132.393 127.606 132.517 126.735 132.742L127.267 134.802L127.8 136.863C128.374 136.714 128.88 136.65 129.323 136.65V134.522ZM127.267 134.802L126.726 132.744C125.887 132.965 125.05 133.27 124.215 133.653L125.1 135.588L125.984 137.523C126.62 137.232 127.228 137.013 127.809 136.86L127.267 134.802ZM125.1 135.588L124.202 133.659C123.384 134.04 122.581 134.488 121.793 135L122.95 136.785L124.108 138.57C124.74 138.159 125.37 137.81 125.997 137.517L125.1 135.588ZM122.95 136.785L121.778 135.009C121.012 135.516 120.279 136.064 119.58 136.654L120.951 138.281L122.321 139.908C122.893 139.426 123.493 138.977 124.123 138.561L122.95 136.785ZM120.951 138.281H118.825V155.359H120.951H123.077V138.281H120.951ZM120.951 155.359V153.231H114.018V155.359V157.487H120.951V155.359ZM114.018 155.359H116.144V129.658H114.018H111.891V155.359H114.018ZM114.018 129.658V131.787H120.951V129.658V127.53H114.018V129.658ZM189.238 155.359H187.112V157.487H189.238V155.359ZM189.238 152.834H191.364V149.237L188.214 150.968L189.238 152.834ZM186.379 154.124L185.648 152.126L185.64 152.129L186.379 154.124ZM179.819 155.658L179.594 153.542L179.569 153.545L179.819 155.658ZM172.288 155.471L171.863 157.557L171.867 157.557L172.288 155.471ZM166.457 151.899L164.659 153.035L164.67 153.052L166.457 151.899ZM166.98 144.099L168.619 145.454L168.627 145.445L166.98 144.099ZM189.238 138.618L189.355 140.743L191.364 140.632V138.618H189.238ZM188.902 136.822L187.022 137.818L187.035 137.841L188.902 136.822ZM187.668 135.719L186.639 137.581L186.662 137.594L186.686 137.606L187.668 135.719ZM185.239 134.933L184.832 137.022L184.836 137.023L185.239 134.933ZM177.577 134.84L177.792 136.957L177.811 136.955L177.577 134.84ZM174.026 135.363L173.617 133.275L173.613 133.276L174.026 135.363ZM168.008 137.084H165.882V140.193L168.777 139.068L168.008 137.084ZM168.008 130.912L167.478 128.85L165.882 129.261V130.912H168.008ZM174.325 129.715L174.594 131.826L174.616 131.823L174.325 129.715ZM177.876 129.34L178.03 131.463L178.052 131.461L177.876 129.34ZM187.276 129.733L186.862 131.821L186.875 131.823L187.276 129.733ZM191.966 131.379L190.912 133.227L190.919 133.231L191.966 131.379ZM195.05 134.222L193.26 135.371L193.269 135.385L195.05 134.222ZM196.171 155.359V157.487H198.298V155.359H196.171ZM189.238 143.631H191.364V141.422L189.159 141.504L189.238 143.631ZM174.885 145.52L174.09 143.547L174.077 143.551L174.885 145.52ZM172.661 147.297L170.62 146.701L170.609 146.741L170.599 146.781L172.661 147.297ZM172.792 148.999L170.941 150.047L170.951 150.064L170.962 150.082L172.792 148.999ZM173.633 149.729L172.636 151.608L172.659 151.621L173.633 149.729ZM184.211 149.448L184.836 151.482L184.86 151.475L184.211 149.448ZM186.939 148.363L187.868 150.278L187.879 150.272L186.939 148.363ZM189.238 147.017L190.462 148.757L191.364 148.121V147.017H189.238ZM189.238 155.359H191.364V152.834H189.238H187.112V155.359H189.238ZM189.238 152.834L188.214 150.968C187.431 151.399 186.577 151.786 185.648 152.126L186.379 154.124L187.109 156.123C188.224 155.715 189.276 155.241 190.262 154.699L189.238 152.834ZM186.379 154.124L185.64 152.129C184.715 152.472 183.744 152.765 182.727 153.008L183.22 155.078L183.714 157.149C184.889 156.868 186.024 156.525 187.117 156.12L186.379 154.124ZM183.22 155.078L182.727 153.008C181.723 153.248 180.679 153.427 179.594 153.542L179.819 155.658L180.044 157.774C181.302 157.641 182.525 157.432 183.714 157.149L183.22 155.078ZM179.819 155.658L179.569 153.545C178.495 153.672 177.407 153.736 176.306 153.736V155.864V157.992C177.571 157.992 178.826 157.919 180.069 157.772L179.819 155.658ZM176.306 155.864V153.736C175.058 153.736 173.86 153.618 172.709 153.385L172.288 155.471L171.867 157.557C173.307 157.848 174.788 157.992 176.306 157.992V155.864ZM172.288 155.471L172.712 153.386C171.629 153.165 170.715 152.817 169.945 152.364L168.868 154.199L167.791 156.034C169.015 156.754 170.38 157.254 171.863 157.557L172.288 155.471ZM168.868 154.199L169.945 152.364C169.227 151.942 168.67 151.406 168.244 150.745L166.457 151.899L164.67 153.052C165.465 154.287 166.515 155.284 167.791 156.034L168.868 154.199ZM166.457 151.899L168.255 150.762C167.915 150.224 167.686 149.479 167.686 148.42H165.56H163.434C163.434 150.103 163.803 151.678 164.659 153.035L166.457 151.899ZM165.56 148.42H167.686C167.686 147.095 168.038 146.159 168.619 145.454L166.98 144.099L165.341 142.743C164.029 144.333 163.434 146.277 163.434 148.42H165.56ZM166.98 144.099L168.627 145.445C169.263 144.666 170.345 143.899 172.068 143.246L171.316 141.255L170.564 139.265C168.4 140.084 166.591 141.212 165.334 142.752L166.98 144.099ZM171.316 141.255L172.068 143.246C173.81 142.587 176.094 142.049 178.962 141.662L178.679 139.553L178.397 137.444C175.335 137.856 172.709 138.453 170.564 139.265L171.316 141.255ZM178.679 139.553L178.962 141.662C181.87 141.273 185.331 140.965 189.355 140.743L189.238 138.618L189.121 136.493C185.022 136.72 181.445 137.036 178.397 137.444L178.679 139.553ZM189.238 138.618H191.364V138.076H189.238H187.112V138.618H189.238ZM189.238 138.076H191.364C191.364 137.259 191.145 136.494 190.768 135.803L188.902 136.822L187.035 137.841C187.107 137.974 187.112 138.044 187.112 138.076H189.238ZM188.902 136.822L190.781 135.827C190.288 134.895 189.481 134.264 188.65 133.831L187.668 135.719L186.686 137.606C187.052 137.797 187.067 137.902 187.022 137.818L188.902 136.822ZM187.668 135.719L188.697 133.857C187.837 133.38 186.784 133.064 185.641 132.843L185.239 134.933L184.836 137.023C185.762 137.202 186.328 137.409 186.639 137.581L187.668 135.719ZM185.239 134.933L185.646 132.844C184.439 132.609 182.982 132.506 181.314 132.506V134.634V136.762C182.836 136.762 183.995 136.859 184.832 137.022L185.239 134.933ZM181.314 134.634V132.506C179.978 132.506 178.654 132.578 177.342 132.724L177.577 134.84L177.811 136.955C178.966 136.827 180.133 136.762 181.314 136.762V134.634ZM177.577 134.84L177.361 132.723C176.078 132.853 174.83 133.037 173.617 133.275L174.026 135.363L174.434 137.452C175.513 137.241 176.633 137.076 177.792 136.957L177.577 134.84ZM174.026 135.363L173.613 133.276C172.422 133.511 171.283 133.788 170.195 134.106L170.793 136.149L171.39 138.192C172.346 137.912 173.362 137.664 174.438 137.451L174.026 135.363ZM170.793 136.149L170.195 134.106C169.126 134.42 168.139 134.75 167.239 135.1L168.008 137.084L168.777 139.068C169.546 138.77 170.416 138.477 171.39 138.192L170.793 136.149ZM168.008 137.084H170.134V130.912H168.008H165.882V137.084H168.008ZM168.008 130.912L168.538 132.973C169.362 132.761 170.298 132.551 171.35 132.346L170.942 130.257L170.534 128.168C169.418 128.387 168.399 128.614 167.478 128.85L168.008 130.912ZM170.942 130.257L171.35 132.346C172.385 132.143 173.466 131.97 174.594 131.826L174.325 129.715L174.055 127.603C172.841 127.759 171.667 127.947 170.534 128.168L170.942 130.257ZM174.325 129.715L174.616 131.823C175.741 131.667 176.879 131.547 178.03 131.463L177.876 129.34L177.721 127.218C176.48 127.308 175.251 127.438 174.033 127.606L174.325 129.715ZM177.876 129.34L178.052 131.461C179.195 131.366 180.282 131.319 181.314 131.319V129.191V127.063C180.154 127.063 178.948 127.115 177.699 127.22L177.876 129.34ZM181.314 129.191V131.319C183.352 131.319 185.199 131.49 186.862 131.821L187.276 129.733L187.69 127.646C185.715 127.253 183.587 127.063 181.314 127.063V129.191ZM187.276 129.733L186.875 131.823C188.515 132.138 189.847 132.618 190.912 133.227L191.966 131.379L193.021 129.531C191.469 128.644 189.674 128.027 187.676 127.643L187.276 129.733ZM191.966 131.379L190.919 133.231C191.974 133.829 192.732 134.547 193.26 135.371L195.05 134.222L196.84 133.073C195.898 131.603 194.6 130.426 193.014 129.527L191.966 131.379ZM195.05 134.222L193.269 135.385C193.758 136.135 194.045 137.082 194.045 138.319H196.171H198.298C198.298 136.388 197.838 134.604 196.831 133.06L195.05 134.222ZM196.171 138.319H194.045V155.359H196.171H198.298V138.319H196.171ZM196.171 155.359V153.231H189.238V155.359V157.487H196.171V155.359ZM189.238 143.631L189.159 141.504C186.465 141.605 184.151 141.751 182.224 141.944L182.435 144.061L182.647 146.179C184.458 145.998 186.679 145.857 189.317 145.758L189.238 143.631ZM182.435 144.061L182.224 141.944C180.327 142.135 178.706 142.362 177.38 142.63L177.801 144.716L178.222 146.802C179.362 146.571 180.831 146.362 182.647 146.179L182.435 144.061ZM177.801 144.716L177.38 142.63C176.089 142.891 174.973 143.19 174.09 143.547L174.885 145.52L175.681 147.494C176.218 147.277 177.046 147.04 178.222 146.802L177.801 144.716ZM174.885 145.52L174.077 143.551C173.286 143.877 172.527 144.273 171.932 144.783L173.316 146.399L174.699 148.015C174.801 147.927 175.089 147.737 175.693 147.489L174.885 145.52ZM173.316 146.399L171.932 144.783C171.41 145.231 170.866 145.859 170.62 146.701L172.661 147.297L174.703 147.893C174.666 148.02 174.618 148.089 174.608 148.102C174.6 148.113 174.621 148.082 174.699 148.015L173.316 146.399ZM172.661 147.297L170.599 146.781C170.491 147.211 170.423 147.661 170.423 148.12H172.549H174.676C174.676 148.08 174.682 147.982 174.724 147.813L172.661 147.297ZM172.549 148.12H170.423C170.423 148.823 170.618 149.473 170.941 150.047L172.792 148.999L174.643 147.952C174.641 147.947 174.65 147.963 174.659 147.997C174.669 148.032 174.676 148.075 174.676 148.12H172.549ZM172.792 148.999L170.962 150.082C171.389 150.806 172.029 151.286 172.636 151.608L173.633 149.729L174.631 147.849C174.588 147.827 174.559 147.809 174.54 147.796C174.521 147.783 174.514 147.777 174.517 147.779C174.522 147.784 174.57 147.826 174.623 147.917L172.792 148.999ZM173.633 149.729L172.659 151.621C173.321 151.962 174.083 152.18 174.872 152.326L175.259 150.234L175.646 148.141C175.09 148.038 174.768 147.92 174.607 147.837L173.633 149.729ZM175.259 150.234L174.872 152.326C175.718 152.483 176.706 152.549 177.801 152.549V150.421V148.293C176.852 148.293 176.146 148.234 175.646 148.141L175.259 150.234ZM177.801 150.421V152.549C179.044 152.549 180.266 152.453 181.465 152.26L181.127 150.159L180.789 148.058C179.821 148.214 178.825 148.293 177.801 148.293V150.421ZM181.127 150.159L181.465 152.26C182.639 152.071 183.763 151.813 184.836 151.482L184.211 149.448L183.586 147.414C182.715 147.682 181.784 147.898 180.789 148.058L181.127 150.159ZM184.211 149.448L184.86 151.475C185.919 151.135 186.923 150.737 187.868 150.278L186.939 148.363L186.011 146.449C185.261 146.813 184.446 147.138 183.562 147.422L184.211 149.448ZM186.939 148.363L187.879 150.272C188.822 149.807 189.686 149.304 190.462 148.757L189.238 147.017L188.014 145.276C187.445 145.677 186.776 146.071 186 146.454L186.939 148.363ZM189.238 147.017H191.364V143.631H189.238H187.112V147.017H189.238Z" fill="#55844D"/>
</g>
<path fill-rule="evenodd" clip-rule="evenodd" d="M136.656 90.2227L86.9357 105.059C86.5893 105.164 86.2215 105.178 85.8683 105.098C85.5153 105.018 85.1887 104.848 84.9208 104.605C84.6529 104.361 84.4528 104.052 84.3397 103.708C84.2268 103.364 84.2051 102.996 84.2763 102.641L102.042 16.8037C102.117 16.4531 102.3 16.1348 102.565 15.8937C102.83 15.6525 103.164 15.5006 103.52 15.4592C103.876 15.4178 104.236 15.489 104.549 15.6629C104.863 15.8368 105.114 16.1046 105.267 16.4286L138.155 86.9027C138.302 87.2162 138.38 87.5578 138.383 87.9043C138.385 88.2505 138.313 88.5934 138.17 88.909C138.028 89.2246 137.819 89.5055 137.557 89.7324C137.296 89.9593 136.988 90.1265 136.656 90.2227ZM145.183 86.7193L107.113 5.11989C106.645 4.11342 105.912 3.25361 104.993 2.63281C104.073 2.01202 103.002 1.65371 101.894 1.59639C100.787 1.52013 99.6794 1.75137 98.6944 2.26465C97.7095 2.77791 96.8854 3.5533 96.3128 4.50538L55.0289 72.0187C54.3993 73.0407 54.0716 74.2203 54.0843 75.4209C54.0971 76.6216 54.4494 77.794 55.1007 78.8024L75.2901 110.362C76.0509 111.542 77.1729 112.443 78.4881 112.93C79.8034 113.418 81.241 113.466 82.5859 113.068L141.192 95.5779C142.078 95.3198 142.896 94.8729 143.592 94.2676C144.288 93.6623 144.845 92.9134 145.224 92.0721C145.603 91.2311 145.795 90.3176 145.787 89.3949C145.78 88.4721 145.572 87.562 145.179 86.7271L145.183 86.7193Z" fill="#55844D"/>
</svg>
