<svg width="93" height="93" viewBox="0 0 93 93" fill="none" xmlns="http://www.w3.org/2000/svg">
<g filter="url(#filter0_i_18_1903)">
<path d="M3.70669 83.5472C3.28819 83.5472 2.93944 83.4077 2.66044 83.1287C2.38144 82.8497 2.24194 82.501 2.24194 82.0825V64.9538C2.24194 64.4158 2.29176 64.0272 2.39141 63.788C2.51098 63.5489 2.73019 63.3895 3.04905 63.3097C3.38784 63.2101 3.91594 63.1603 4.63337 63.1603H5.85898C9.20698 63.1603 11.7877 63.7183 13.6012 64.8343C15.4147 65.9503 16.3215 67.5147 16.3215 69.5275C16.3215 72.0783 14.8468 74.0114 11.8973 75.3267C14.0098 77.0007 15.6638 79.0234 16.8596 81.3949C16.9592 81.5942 17.009 81.8234 17.009 82.0825C17.009 82.481 16.8695 82.8298 16.5905 83.1287C16.3314 83.4077 15.9827 83.5472 15.5443 83.5472C14.9863 83.5472 14.5478 83.2881 14.229 82.77C11.5984 78.585 9.24684 76.4925 7.17427 76.4925C6.55648 76.4925 5.88887 76.5523 5.17144 76.6718V82.0825C5.17144 82.501 5.02198 82.8497 4.72305 83.1287C4.44405 83.4077 4.10526 83.5472 3.70669 83.5472ZM5.17144 73.9217C7.32373 73.7822 9.22691 73.3438 10.881 72.6064C12.5351 71.8691 13.3621 70.8427 13.3621 69.5275C13.3621 68.3915 12.6945 67.5246 11.3593 66.9268C10.044 66.3289 8.18066 66.03 5.7693 66.03H5.17144V73.9217ZM24.7215 83.5472C23.5856 83.5472 22.5394 83.2383 21.5828 82.6205C20.6461 82.0027 19.9088 81.1657 19.3707 80.1095C18.8326 79.0334 18.5636 77.8676 18.5636 76.6121C18.5636 75.1971 18.8825 73.8818 19.5202 72.6662C20.1579 71.4306 21.0148 70.4541 22.091 69.7367C23.1671 68.9993 24.323 68.6307 25.5585 68.6307C26.6945 68.6307 27.7308 68.9495 28.6674 69.5872C29.624 70.225 30.3713 71.0719 30.9094 72.1281C31.4674 73.1843 31.7464 74.3203 31.7464 75.5359C31.7464 76.9708 31.4275 78.306 30.7898 79.5416C30.1521 80.7572 29.2852 81.7337 28.1891 82.4711C27.113 83.1885 25.9571 83.5472 24.7215 83.5472ZM24.7215 80.8568C25.419 80.8568 26.0866 80.6177 26.7244 80.1394C27.3621 79.6611 27.8703 79.0234 28.2489 78.2263C28.6275 77.4291 28.8169 76.5822 28.8169 75.6854C28.8169 74.9281 28.6674 74.2206 28.3685 73.563C28.0695 72.8854 27.661 72.3474 27.1429 71.9488C26.6247 71.5303 26.0568 71.321 25.439 71.321C24.7415 71.321 24.0838 71.5701 23.466 72.0683C22.8682 72.5466 22.3899 73.1943 22.0312 74.0114C21.6725 74.8085 21.4931 75.6655 21.4931 76.5822C21.4931 77.479 21.6426 78.2462 21.9415 78.8839C22.2604 79.5216 22.6589 80.0099 23.1372 80.3487C23.6354 80.6875 24.1635 80.8568 24.7215 80.8568ZM36.3979 83.5472C36.0192 83.5472 35.6804 83.4077 35.3815 83.1287C35.1025 82.8497 34.963 82.5308 34.963 82.1721V70.0356C34.963 69.6371 35.1125 69.2983 35.4114 69.0193C35.7103 68.7403 36.0591 68.6008 36.4576 68.6008C36.8363 68.6008 37.1551 68.7403 37.4142 69.0193C37.6932 69.2983 37.8327 69.6371 37.8327 70.0356V72.3075C38.3907 71.1118 39.0982 70.205 39.9551 69.5872C40.812 68.9495 41.7487 68.6307 42.765 68.6307C43.881 68.6307 44.7679 68.8897 45.4255 69.4079C46.0831 69.926 46.5614 70.783 46.8604 71.9787C47.1593 73.1545 47.3087 74.7886 47.3087 76.8811L47.2789 82.1123C47.2789 82.491 47.1493 82.8298 46.8902 83.1287C46.6312 83.4077 46.3024 83.5472 45.9038 83.5472C45.5251 83.5472 45.1864 83.4077 44.8874 83.1287C44.6084 82.8298 44.4689 82.501 44.4689 82.1422V77.18C44.4689 75.6256 44.3992 74.4299 44.2597 73.5929C44.1202 72.7559 43.9109 72.1879 43.6319 71.889C43.3529 71.5701 42.9743 71.4107 42.496 71.4107C41.8981 71.4107 41.3003 71.6698 40.7024 72.1879C40.1046 72.6861 39.5466 73.4036 39.0284 74.3402C38.5701 75.1573 38.2512 75.9544 38.0719 76.7316C37.8925 77.5088 37.8028 78.4455 37.8028 79.5416V82.0526C37.8028 82.491 37.6733 82.8497 37.4142 83.1287C37.1751 83.4077 36.8363 83.5472 36.3979 83.5472ZM52.6586 83.5472C52.2799 83.5472 51.9411 83.4077 51.6422 83.1287C51.3433 82.8497 51.1938 82.5308 51.1938 82.1721V70.0655C51.1938 69.667 51.3333 69.3282 51.6123 69.0492C51.9112 68.7702 52.26 68.6307 52.6586 68.6307C53.0571 68.6307 53.3959 68.7702 53.6749 69.0492C53.9739 69.3282 54.1233 69.667 54.1233 70.0655V70.9623C55.0998 69.368 56.435 68.5709 58.129 68.5709C59.1453 68.5709 59.8727 68.8499 60.3111 69.4079C60.7695 69.9659 60.9987 70.6335 60.9987 71.4107V72.3075C60.9987 72.7061 60.8592 73.0448 60.5802 73.3238C60.3211 73.5829 59.9923 73.7125 59.5937 73.7125C59.1154 73.7125 58.7567 73.573 58.5176 73.294C58.2984 73.015 58.1888 72.6762 58.1888 72.2776V71.889C58.1888 71.5701 57.9695 71.4107 57.5311 71.4107C57.1724 71.4107 56.7539 71.5901 56.2756 71.9488C55.8172 72.3075 55.4386 72.6861 55.1397 73.0847C54.7212 73.6028 54.4422 74.121 54.3027 74.6391C54.1831 75.1573 54.1233 75.7751 54.1233 76.4925L54.0934 82.1721C54.0934 82.5308 53.944 82.8497 53.645 83.1287C53.3461 83.4077 53.0173 83.5472 52.6586 83.5472ZM68.0429 83.5472C66.907 83.5472 65.8608 83.2383 64.9042 82.6205C63.9675 82.0027 63.2302 81.1657 62.6921 80.1095C62.154 79.0334 61.885 77.8676 61.885 76.6121C61.885 75.1971 62.2039 73.8818 62.8416 72.6662C63.4793 71.4306 64.3362 70.4541 65.4124 69.7367C66.4885 68.9993 67.6444 68.6307 68.8799 68.6307C70.0159 68.6307 71.0521 68.9495 71.9888 69.5872C72.9454 70.225 73.6927 71.0719 74.2308 72.1281C74.7888 73.1843 75.0677 74.3203 75.0677 75.5359C75.0677 76.9708 74.7489 78.306 74.1112 79.5416C73.4735 80.7572 72.6066 81.7337 71.5105 82.4711C70.4344 83.1885 69.2785 83.5472 68.0429 83.5472ZM68.0429 80.8568C68.7404 80.8568 69.408 80.6177 70.0458 80.1394C70.6835 79.6611 71.1917 79.0234 71.5703 78.2263C71.9489 77.4291 72.1383 76.5822 72.1383 75.6854C72.1383 74.9281 71.9888 74.2206 71.6899 73.563C71.3909 72.8854 70.9824 72.3474 70.4643 71.9488C69.9461 71.5303 69.3781 71.321 68.7604 71.321C68.0629 71.321 67.4052 71.5701 66.7874 72.0683C66.1896 72.5466 65.7113 73.1943 65.3526 74.0114C64.9939 74.8085 64.8145 75.6655 64.8145 76.5822C64.8145 77.479 64.964 78.2462 65.2629 78.8839C65.5818 79.5216 65.9803 80.0099 66.4586 80.3487C66.9568 80.6875 67.4849 80.8568 68.0429 80.8568ZM79.7191 83.5472C79.3404 83.5472 79.0017 83.4077 78.7027 83.1287C78.4237 82.8497 78.2842 82.5308 78.2842 82.1721V70.0356C78.2842 69.6371 78.4337 69.2983 78.7326 69.0193C79.0315 68.7403 79.3803 68.6008 79.7789 68.6008C80.1575 68.6008 80.4764 68.7403 80.7354 69.0193C81.0144 69.2983 81.1539 69.6371 81.1539 70.0356V72.3075C81.7119 71.1118 82.4194 70.205 83.2763 69.5872C84.1333 68.9495 85.0699 68.6307 86.0863 68.6307C87.2023 68.6307 88.0891 68.8897 88.7467 69.4079C89.4044 69.926 89.8827 70.783 90.1816 71.9787C90.4805 73.1545 90.63 74.7886 90.63 76.8811L90.6001 82.1123C90.6001 82.491 90.4705 82.8298 90.2115 83.1287C89.9524 83.4077 89.6236 83.5472 89.225 83.5472C88.8464 83.5472 88.5076 83.4077 88.2086 83.1287C87.9296 82.8298 87.7902 82.501 87.7902 82.1422V77.18C87.7902 75.6256 87.7204 74.4299 87.5809 73.5929C87.4414 72.7559 87.2321 72.1879 86.9531 71.889C86.6741 71.5701 86.2955 71.4107 85.8172 71.4107C85.2194 71.4107 84.6215 71.6698 84.0237 72.1879C83.4258 72.6861 82.8678 73.4036 82.3497 74.3402C81.8913 75.1573 81.5724 75.9544 81.3931 76.7316C81.2137 77.5088 81.124 78.4455 81.124 79.5416V82.0526C81.124 82.491 80.9945 82.8497 80.7354 83.1287C80.4963 83.4077 80.1575 83.5472 79.7191 83.5472Z" fill="#D3E2E8"/>
</g>
<path d="M22.7386 16.5244C12.2453 9.42903 20.8934 -1.64029 27.8171 9.66394" stroke="#DFECF1" stroke-width="2.4" stroke-linecap="round" stroke-linejoin="round"/>
<path d="M61.1975 8.75155C66.3555 0.463508 78.5804 1.55061 70.9756 12.7876" stroke="#DFECF1" stroke-width="2.4" stroke-linecap="round" stroke-linejoin="round"/>
<path d="M36.8232 15.0294C36.6261 13.8087 37.2447 12.629 37.5323 11.5419" stroke="#DFECF1" stroke-width="2.4" stroke-linecap="round" stroke-linejoin="round"/>
<path d="M45.0056 16.524C45.1074 14.4355 45.2418 12.3418 45.5038 10.2964" stroke="#DFECF1" stroke-width="2.4" stroke-linecap="round" stroke-linejoin="round"/>
<path d="M53.4751 15.0296C53.4751 13.9487 53.4751 12.8696 53.4751 11.7912" stroke="#DFECF1" stroke-width="2.4" stroke-linecap="round" stroke-linejoin="round"/>
<path d="M34.792 30.9723C36.6535 30.453 38.6248 30.2308 40.5215 29.9759" stroke="#DFECF1" stroke-width="2.4" stroke-linecap="round" stroke-linejoin="round"/>
<path d="M52.7278 29.9761C54.6946 29.584 56.5345 29.7099 58.4572 29.9761" stroke="#DFECF1" stroke-width="2.4" stroke-linecap="round" stroke-linejoin="round"/>
<path d="M43.5107 39.1944C51.8558 34.8941 50.819 41.336 44.3773 40.3303" stroke="#DFECF1" stroke-width="2.4" stroke-linecap="round" stroke-linejoin="round"/>
<path d="M46.7492 41.933C46.2644 47.2405 42.0095 47.7062 38.2795 46.1016" stroke="#DFECF1" stroke-width="2.4" stroke-linecap="round" stroke-linejoin="round"/>
<path d="M46.5101 41.933C46.2168 48.9826 52.3741 47.9131 55.7168 44.5256" stroke="#DFECF1" stroke-width="2.4" stroke-linecap="round" stroke-linejoin="round"/>
<path d="M24.3292 35.9546C20.674 34.7659 16.8092 34.7003 13.1194 34.2109" stroke="#DFECF1" stroke-width="2.4" stroke-linecap="round" stroke-linejoin="round"/>
<path d="M25.5749 41.933C21.5561 42.8816 17.5394 43.615 13.6177 44.9223" stroke="#DFECF1" stroke-width="2.4" stroke-linecap="round" stroke-linejoin="round"/>
<path d="M69.667 33.4634C72.5319 32.7061 75.3187 31.625 78.1366 30.7232" stroke="#DFECF1" stroke-width="2.4" stroke-linecap="round" stroke-linejoin="round"/>
<path d="M70.6633 40.4382C73.6171 40.0639 76.9254 40.1959 79.6312 40.2961" stroke="#DFECF1" stroke-width="2.4" stroke-linecap="round" stroke-linejoin="round"/>
<defs>
<filter id="filter0_i_18_1903" x="2.24194" y="63.1603" width="88.3879" height="22.3869" filterUnits="userSpaceOnUse" color-interpolation-filters="sRGB">
<feFlood flood-opacity="0" result="BackgroundImageFix"/>
<feBlend mode="normal" in="SourceGraphic" in2="BackgroundImageFix" result="shape"/>
<feColorMatrix in="SourceAlpha" type="matrix" values="0 0 0 0 0 0 0 0 0 0 0 0 0 0 0 0 0 0 127 0" result="hardAlpha"/>
<feOffset dy="2"/>
<feGaussianBlur stdDeviation="1"/>
<feComposite in2="hardAlpha" operator="arithmetic" k2="-1" k3="1"/>
<feColorMatrix type="matrix" values="0 0 0 0 0 0 0 0 0 0 0 0 0 0 0 0 0 0 0.79 0"/>
<feBlend mode="soft-light" in2="shape" result="effect1_innerShadow_18_1903"/>
</filter>
</defs>
</svg>
